<?xml version="1.0" encoding="utf-8"?><svg viewBox="0 0 36 36" xmlns="http://www.w3.org/2000/svg" xmlns:xlink="http://www.w3.org/1999/xlink"><style>:root>svg{display:none}:root>svg:target{display:block}</style><svg fill="none" viewBox="0 0 12 13" id="app_android" xmlns="http://www.w3.org/2000/svg"><path d="M.974.352L7.2 5.638l1.606-1.365C6.612 3.143 3.671 1.625 2.35.943L1.463.487a1.24 1.24 0 00-.49-.135zm-.95.632a.833.833 0 00-.024.18V11.61c0 .043.01.084.018.126l6.334-5.379L.023.984zm9.84 3.834l-1.815 1.54 1.783 1.514 1.671-.861c.321-.167.502-.418.497-.693-.005-.27-.186-.51-.495-.658-.069-.034-.714-.365-1.642-.842zM7.2 7.078L.993 12.35c.12-.018.24-.048.356-.107l7.427-3.827L7.2 7.08z" fill="#000"/></svg><svg fill="none" viewBox="0 0 12 13" id="app_apple" xmlns="http://www.w3.org/2000/svg"><path d="M11.625 4.444C11.559 4.477 10 5.183 10 6.747c.074 1.783 1.967 2.408 2 2.408-.033.034-.286.853-1.037 1.71-.595.74-1.257 1.485-2.26 1.485-.956 0-1.299-.493-2.4-.493-1.184 0-1.519.493-2.425.493-1.004 0-1.714-.785-2.343-1.517C.72 9.874.025 8.37.001 6.926c-.016-.765.163-1.517.62-2.156.645-.892 1.796-1.497 3.053-1.517.963-.027 1.82.539 2.408.539.563 0 1.616-.54 2.808-.54.514.001 1.885.127 2.735 1.192zM6 3.1c-.172-.699.301-1.398.742-1.843.563-.54 1.453-.905 2.22-.905.05.698-.261 1.384-.816 1.883-.498.539-1.355.945-2.146.865z" fill="#000"/></svg><svg fill="none" viewBox="0 0 20 20" id="arrow_down" xmlns="http://www.w3.org/2000/svg"><g clip-path="url(#cclip0_2_18)"><path d="M10 15.7c-.359 0-.717-.137-.99-.41l-8.6-8.6a1.4 1.4 0 111.98-1.98L10 12.32l7.609-7.61a1.4 1.4 0 011.98 1.98l-8.6 8.6c-.273.274-.631.41-.99.41z" fill="#fff"/></g><defs><clipPath id="cclip0_2_18"><path fill="#fff" d="M0 0h20v20H0z"/></clipPath></defs></svg><svg fill="none" viewBox="0 0 30 30" id="facebook" xmlns="http://www.w3.org/2000/svg"><path d="M15 0C6.716 0 0 6.75 0 15.077c0 7.559 5.54 13.801 12.758 14.892V19.073H9.046V15.11h3.712v-2.637c0-4.366 2.116-6.283 5.726-6.283 1.728 0 2.643.13 3.076.188v3.459h-2.462c-1.533 0-2.068 1.46-2.068 3.107v2.166h4.491l-.608 3.963H17.03V30C24.351 29.002 30 22.71 30 15.077 30 6.751 23.284 0 15 0z" fill="#42E8E0"/></svg><svg fill="none" viewBox="0 0 36 36" id="features_1" xmlns="http://www.w3.org/2000/svg"><path d="M18 1.5l12.326 2.739A1.5 1.5 0 0131.5 5.703v14.98a8.999 8.999 0 01-4.008 7.489L18 34.5l-9.492-6.328A8.996 8.996 0 014.5 20.684V5.703a1.5 1.5 0 011.175-1.464L18 1.5zm6.678 10.833l-7.425 7.423-4.242-4.242-2.121 2.122L17.254 24l9.546-9.546-2.122-2.121z" fill="#001120"/></svg><svg fill="none" viewBox="0 0 36 36" id="features_2" xmlns="http://www.w3.org/2000/svg"><path d="M6.96 22.905v7.23A1.38 1.38 0 008.34 31.5h8.43v-8.595H6.96zM19.23 31.5h8.43a1.38 1.38 0 001.38-1.365v-7.23h-9.81V31.5zM30.15 10.635h-2.76a4.23 4.23 0 00.435-1.845A4.305 4.305 0 0023.52 4.5 6.315 6.315 0 0018 8.355 6.315 6.315 0 0012.48 4.5a4.305 4.305 0 00-4.305 4.29c.004.64.152 1.27.435 1.845H5.85c-.75 0-1.35.885-1.35 1.965v5.895c0 1.08.6 1.965 1.35 1.965h10.92v-9.825h2.46v9.825h10.92c.75 0 1.35-.885 1.35-1.965V12.6c0-1.08-.6-1.965-1.35-1.965zm-17.67 0a1.846 1.846 0 110-3.675c2.1 0 3.285 2.16 3.87 3.675h-3.87zm11.04 0h-3.87c.585-1.5 1.77-3.675 3.87-3.675a1.845 1.845 0 110 3.675z" fill="#001120"/></svg><svg fill="none" viewBox="0 0 36 36" id="features_3" xmlns="http://www.w3.org/2000/svg"><path d="M5.675 4.239L18 1.5l12.326 2.739A1.5 1.5 0 0131.5 5.703v14.98a9 9 0 01-4.008 7.489L18 34.5l-9.492-6.328A9 9 0 014.5 20.684V5.703a1.5 1.5 0 011.175-1.464zM18 16.5A3.75 3.75 0 1018 9a3.75 3.75 0 000 7.5zM11.29 24h13.42a6.75 6.75 0 00-13.42 0z" fill="#001120"/></svg><svg fill="none" viewBox="0 0 30 30" id="instagram" xmlns="http://www.w3.org/2000/svg"><path d="M15 0C6.73 0 0 6.73 0 15s6.73 15 15 15 15-6.73 15-15S23.27 0 15 0zm-3.847 4.615h7.692c3.605 0 6.54 2.933 6.54 6.538v7.692c0 3.605-2.934 6.54-6.538 6.54h-7.692c-3.605 0-6.54-2.934-6.54-6.538v-7.692c0-3.605 2.933-6.54 6.538-6.54zm0 2.308c-2.332 0-4.23 1.9-4.23 4.232v7.692c0 2.332 1.9 4.23 4.232 4.23h7.692c2.332 0 4.23-1.9 4.23-4.232v-7.692c0-2.332-1.9-4.23-4.232-4.23h-7.692zm9.233 1.922a.77.77 0 11-.003 1.538.77.77 0 01.003-1.538zM15 9.231A5.776 5.776 0 0120.77 15 5.776 5.776 0 0115 20.77 5.776 5.776 0 019.23 15 5.776 5.776 0 0115 9.23zm0 2.308a3.462 3.462 0 100 6.923 3.462 3.462 0 000-6.923z" fill="#42E8E0"/></svg><svg fill="none" viewBox="0 0 30 30" id="linkedin" xmlns="http://www.w3.org/2000/svg"><path d="M15 0C6.716 0 0 6.716 0 15c0 8.284 6.716 15 15 15 8.284 0 15-6.716 15-15 0-8.284-6.716-15-15-15zM9.37 6.754c1.053 0 1.754.701 1.754 1.636 0 .935-.702 1.636-1.87 1.636C8.2 10.028 7.5 9.325 7.5 8.39c0-.935.701-1.636 1.87-1.636zm1.88 14.496H7.5v-10h3.75v10zm12.5 0h-3.53v-5.465c0-1.511-.941-1.86-1.294-1.86-.352 0-1.53.232-1.53 1.86v5.465H13.75v-10h3.648v1.395c.47-.814 1.41-1.395 3.176-1.395 1.765 0 3.176 1.395 3.176 4.535v5.465z" fill="#42E8E0"/></svg><svg fill="none" viewBox="0 0 30 30" id="twitter" xmlns="http://www.w3.org/2000/svg"><path d="M15 0C6.716 0 0 6.716 0 15c0 8.284 6.716 15 15 15 8.284 0 15-6.716 15-15 0-8.284-6.716-15-15-15zm8.08 11.919a11 11 0 01.011.496c0 5.085-3.869 10.945-10.945 10.945-2.174 0-4.195-.636-5.896-1.729.301.037.607.053.919.053a7.697 7.697 0 004.776-1.648 3.85 3.85 0 01-3.594-2.671 3.84 3.84 0 001.738-.066 3.848 3.848 0 01-3.087-3.771v-.05a3.823 3.823 0 001.743.482 3.846 3.846 0 01-1.711-3.201c0-.707.189-1.368.52-1.934a10.921 10.921 0 007.928 4.02 3.848 3.848 0 016.555-3.509 7.732 7.732 0 002.444-.933 3.862 3.862 0 01-1.692 2.128 7.684 7.684 0 002.21-.605 7.755 7.755 0 01-1.919 1.993z" fill="#42E8E0"/></svg></svg>