<svg xmlns="http://www.w3.org/2000/svg" version="1.1" xmlns:xlink="http://www.w3.org/1999/xlink" xmlns:svgjs="http://svgjs.dev/svgjs" width="1000" height="623" viewBox="0 0 1000 623"><g transform="matrix(1,0,0,1,-0.6060606060606233,0.2522267206477409)"><svg viewBox="0 0 396 247" data-background-color="#ffffff" preserveAspectRatio="xMidYMid meet" height="623" width="1000" xmlns="http://www.w3.org/2000/svg" xmlns:xlink="http://www.w3.org/1999/xlink"><defs></defs><g id="tight-bounds" transform="matrix(1,0,0,1,0.2400000000000091,-0.09999999999999432)"><svg viewBox="0 0 395.52 247.2" height="247.2" width="395.52"><g><svg></svg></g><g><svg viewBox="0 0 395.52 247.2" height="247.2" width="395.52"><g transform="matrix(1,0,0,1,75.54432,92.2113058830946)"><svg viewBox="0 0 244.43135999999998 62.7773882338108" height="62.7773882338108" width="244.43135999999998"><g><svg viewBox="0 0 244.43135999999998 62.7773882338108" height="62.7773882338108" width="244.43135999999998"><g><svg viewBox="0 0 244.43135999999998 62.7773882338108" height="62.7773882338108" width="244.43135999999998"><g><svg viewBox="0 0 244.43135999999998 62.7773882338108" height="62.7773882338108" width="244.43135999999998"><g><svg viewBox="0 0 244.43135999999998 62.7773882338108" height="62.7773882338108" width="244.43135999999998"><g><svg viewBox="0 0 244.43135999999998 34.97369220727099" height="34.97369220727099" width="244.43135999999998"><g transform="matrix(1,0,0,1,0,0)"><svg width="244.43135999999998" viewBox="3.95 -40 283.03476075776 40.5" height="34.97369220727099" data-palette-color="#111111"><path d="M30.95-11.3L30.95-8Q30.95-3.95 28.25-1.95L28.25-1.95Q26.95-1 25.58-0.48 24.2 0.05 22.9 0.05L22.9 0.05 12 0.05Q10.7 0.05 9.33-0.48 7.95-1 6.65-1.95L6.65-1.95Q5.35-2.95 4.65-4.42 3.95-5.9 3.95-8L3.95-8 3.95-31.75Q3.95-33.75 4.65-35.27 5.35-36.8 6.65-37.75L6.65-37.75 6.6-37.75Q7.9-38.6 9.3-39.15 10.7-39.7 12-39.7L12-39.7 22.9-39.7Q24.2-39.7 25.6-39.15 27-38.6 28.3-37.75L28.3-37.75 28.25-37.75Q29.55-36.8 30.25-35.27 30.95-33.75 30.95-31.75L30.95-31.75 30.95-28.3Q30.95-25.9 27.95-25.9L27.95-25.9Q25-25.9 25-28.3L25-28.3 25-31.3Q25-32.55 24.25-33.6 23.5-34.65 21.65-34.65L21.65-34.65 13.25-34.65Q11.4-34.65 10.65-33.6 9.9-32.55 9.9-31.3L9.9-31.3 9.9-8.4Q9.9-7.1 10.65-6.05 11.4-5 13.25-5L13.25-5 21.65-5Q23.5-5 24.25-6.05 25-7.1 25-8.4L25-8.4 25-11.3Q25-13.65 27.95-13.65L27.95-13.65Q30.95-13.65 30.95-11.3L30.95-11.3ZM61.8-0.6L52.35-16.45 48.5-16.45Q47.65-16.45 47.17-17.13 46.7-17.8 46.7-18.95L46.7-18.95Q46.7-21.5 48.8-21.5L48.8-21.5 54.65-21.5Q56.5-21.5 57.25-22.55 58-23.6 58-24.85L58-24.85 58-31.3Q58-32.55 57.25-33.6 56.5-34.65 54.65-34.65L54.65-34.65 44.1-34.65 44.1-2.05Q44.1 0.35 41.15 0.35L41.15 0.35Q38.2 0.35 38.2-2.05L38.2-2.05 38.2-36.7Q38.2-38.5 39.12-39.1 40.05-39.7 41.35-39.7L41.35-39.7 55.9-39.7Q57.2-39.7 58.6-39.15 60-38.6 61.3-37.75L61.3-37.75 61.25-37.75Q62.55-36.8 63.25-35.27 63.95-33.75 63.95-31.75L63.95-31.75 63.95-24.45Q63.95-20.4 61.25-18.4L61.25-18.4Q60.7-18 60.07-17.65 59.45-17.3 58.8-16.95L58.8-16.95 66.8-3.75Q66.95-3.5 67.1-3.1 67.25-2.7 67.25-2.45L67.25-2.45Q67.25-1.25 65.55-0.15L65.55-0.15 65.55-0.2Q64.4 0.5 63.6 0.5L63.6 0.5Q62.45 0.5 61.75-0.65L61.75-0.65 61.8-0.6ZM93.4 0.05L75.1 0.05Q73.25 0.05 72.6-0.9 71.95-1.85 71.95-3L71.95-3 71.95-36.7Q71.95-37.85 72.6-38.78 73.25-39.7 75.1-39.7L75.1-39.7 92.5-39.7Q94.35-39.7 94.45-37.2L94.45-37.2Q94.55-34.65 92.5-34.65L92.5-34.65 77.85-34.65 77.85-5 93.4-5Q95.25-5 95.3-2.55L95.3-2.55Q95.4 0.05 93.4 0.05L93.4 0.05ZM90.65-20.65L90.65-20.65Q90.65-18.9 89.42-17.7 88.2-16.5 86.45-16.5L86.45-16.5Q84.75-16.5 83.55-17.7 82.35-18.9 82.35-20.65L82.35-20.65Q82.35-22.4 83.55-23.6 84.75-24.8 86.45-24.8L86.45-24.8Q88.2-24.8 89.42-23.6 90.65-22.4 90.65-20.65ZM108.69-39.7L119.59-39.7Q120.89-39.7 122.29-39.15 123.69-38.6 124.99-37.75L124.99-37.75 124.94-37.75Q126.24-36.8 126.94-35.27 127.64-33.75 127.64-31.75L127.64-31.75 127.64-8Q127.64-3.95 124.94-1.95L124.94-1.95Q123.64-1 122.27-0.48 120.89 0.05 119.59 0.05L119.59 0.05 108.69 0.05Q107.39 0.05 106.02-0.48 104.64-1 103.34-1.95L103.34-1.95Q102.04-2.95 101.34-4.42 100.64-5.9 100.64-8L100.64-8 100.64-31.75Q100.64-33.75 101.34-35.27 102.04-36.8 103.34-37.75L103.34-37.75 103.29-37.75Q104.59-38.6 105.99-39.15 107.39-39.7 108.69-39.7L108.69-39.7ZM109.94-5L118.34-5Q120.19-5 120.94-6.05 121.69-7.1 121.69-8.4L121.69-8.4 121.69-31.3Q121.69-32.55 120.94-33.6 120.19-34.65 118.34-34.65L118.34-34.65 109.94-34.65Q108.09-34.65 107.34-33.6 106.59-32.55 106.59-31.3L106.59-31.3 106.59-8.4Q106.59-7.1 107.34-6.05 108.09-5 109.94-5L109.94-5ZM146.94 0.25L146.94 0.25Q145.94 0.25 144.81-0.08 143.69-0.4 143.19-1.3L143.19-1.3Q142.04-5.2 140.79-9.3 139.54-13.4 138.29-17.35L138.29-17.35Q136.89-22 135.29-27.03 133.69-32.05 132.29-36.65L132.29-36.65Q131.99-37.75 132.64-38.58 133.29-39.4 134.49-39.8L134.49-39.8Q135.24-40 135.79-40L135.79-40Q137.49-40 137.99-38.3L137.99-38.3 141.69-26.45Q142.19-24.65 142.87-22.5 143.54-20.35 144.24-18.1 144.94-15.85 145.64-13.63 146.34-11.4 146.94-9.5L146.94-9.5Q147.89-12.65 149.01-16.32 150.14-20 151.31-23.8 152.49-27.6 153.64-31.33 154.79-35.05 155.79-38.3L155.79-38.3Q156.34-40 157.94-40L157.94-40Q158.54-40 159.34-39.8L159.34-39.8Q162.09-39.05 161.49-36.65L161.49-36.65Q158.79-27.9 156.04-19 153.29-10.1 150.59-1.3L150.59-1.3Q150.19-0.3 149.12-0.03 148.04 0.25 146.94 0.25ZM187.74 0.05L169.44 0.05Q167.59 0.05 166.94-0.9 166.29-1.85 166.29-3L166.29-3 166.29-36.7Q166.29-37.85 166.94-38.78 167.59-39.7 169.44-39.7L169.44-39.7 186.84-39.7Q188.69-39.7 188.79-37.2L188.79-37.2Q188.89-34.65 186.84-34.65L186.84-34.65 172.19-34.65 172.19-5 187.74-5Q189.59-5 189.64-2.55L189.64-2.55Q189.74 0.05 187.74 0.05L187.74 0.05ZM184.99-20.65L184.99-20.65Q184.99-18.9 183.76-17.7 182.54-16.5 180.79-16.5L180.79-16.5Q179.09-16.5 177.89-17.7 176.69-18.9 176.69-20.65L176.69-20.65Q176.69-22.4 177.89-23.6 179.09-24.8 180.79-24.8L180.79-24.8Q182.54-24.8 183.76-23.6 184.99-22.4 184.99-20.65ZM218.64-0.6L209.19-16.45 205.34-16.45Q204.49-16.45 204.01-17.13 203.54-17.8 203.54-18.95L203.54-18.95Q203.54-21.5 205.64-21.5L205.64-21.5 211.49-21.5Q213.34-21.5 214.09-22.55 214.84-23.6 214.84-24.85L214.84-24.85 214.84-31.3Q214.84-32.55 214.09-33.6 213.34-34.65 211.49-34.65L211.49-34.65 200.94-34.65 200.94-2.05Q200.94 0.35 197.99 0.35L197.99 0.35Q195.04 0.35 195.04-2.05L195.04-2.05 195.04-36.7Q195.04-38.5 195.96-39.1 196.89-39.7 198.19-39.7L198.19-39.7 212.74-39.7Q214.04-39.7 215.44-39.15 216.84-38.6 218.14-37.75L218.14-37.75 218.09-37.75Q219.39-36.8 220.09-35.27 220.79-33.75 220.79-31.75L220.79-31.75 220.79-24.45Q220.79-20.4 218.09-18.4L218.09-18.4Q217.54-18 216.91-17.65 216.29-17.3 215.64-16.95L215.64-16.95 223.64-3.75Q223.79-3.5 223.94-3.1 224.09-2.7 224.09-2.45L224.09-2.45Q224.09-1.25 222.39-0.15L222.39-0.15 222.39-0.2Q221.24 0.5 220.44 0.5L220.44 0.5Q219.29 0.5 218.59-0.65L218.59-0.65 218.64-0.6ZM238.03-22.85L247.68-22.85Q248.98-22.85 250.38-22.3 251.78-21.75 253.08-20.85L253.08-20.85 253.03-20.85Q254.33-19.95 255.03-18.4 255.73-16.85 255.73-14.85L255.73-14.85 255.73-8Q255.73-3.95 253.03-1.95L253.03-1.95Q251.73-1 250.36-0.48 248.98 0.05 247.68 0.05L247.68 0.05 236.78 0.05Q235.48 0.05 234.11-0.48 232.73-1 231.43-1.95L231.43-1.95Q228.73-3.95 228.73-8L228.73-8 228.73-11.3Q228.73-13.65 231.68-13.65L231.68-13.65Q234.68-13.65 234.68-11.3L234.68-11.3 234.68-8.4Q234.68-7.1 235.43-6.05 236.18-5 238.03-5L238.03-5 246.43-5Q248.28-5 249.03-6.05 249.78-7.1 249.78-8.4L249.78-8.4 249.78-14.45Q249.78-15.7 249.03-16.78 248.28-17.85 246.43-17.85L246.43-17.85 236.78-17.85Q234.18-17.85 231.43-19.75L231.43-19.75Q228.73-21.85 228.73-25.8L228.73-25.8 228.73-31.75Q228.73-33.75 229.43-35.27 230.13-36.8 231.43-37.75L231.43-37.75 231.38-37.75Q232.68-38.6 234.08-39.15 235.48-39.7 236.78-39.7L236.78-39.7 247.68-39.7Q248.98-39.7 250.38-39.15 251.78-38.6 253.08-37.75L253.08-37.75 253.03-37.75Q254.33-36.8 255.03-35.27 255.73-33.75 255.73-31.75L255.73-31.75 255.73-28.8Q255.73-26.45 252.73-26.45L252.73-26.45Q249.78-26.45 249.78-28.8L249.78-28.8 249.78-31.3Q249.78-32.55 249.03-33.6 248.28-34.65 246.43-34.65L246.43-34.65 238.03-34.65Q236.18-34.65 235.43-33.6 234.68-32.55 234.68-31.3L234.68-31.3 234.68-26.2Q234.68-24.9 235.43-23.88 236.18-22.85 238.03-22.85L238.03-22.85ZM285.08 0.05L266.78 0.05Q264.93 0.05 264.28-0.9 263.63-1.85 263.63-3L263.63-3 263.63-36.7Q263.63-37.85 264.28-38.78 264.93-39.7 266.78-39.7L266.78-39.7 284.18-39.7Q286.03-39.7 286.13-37.2L286.13-37.2Q286.23-34.65 284.18-34.65L284.18-34.65 269.53-34.65 269.53-5 285.08-5Q286.93-5 286.98-2.55L286.98-2.55Q287.08 0.05 285.08 0.05L285.08 0.05ZM282.33-20.65L282.33-20.65Q282.33-18.9 281.11-17.7 279.88-16.5 278.13-16.5L278.13-16.5Q276.43-16.5 275.23-17.7 274.03-18.9 274.03-20.65L274.03-20.65Q274.03-22.4 275.23-23.6 276.43-24.8 278.13-24.8L278.13-24.8Q279.88-24.8 281.11-23.6 282.33-22.4 282.33-20.65Z" opacity="1" transform="matrix(1,0,0,1,0,0)" fill="#111111" class="undefined-text-0" data-fill-palette-color="primary" id="text-0"></path></svg></g></svg></g><g transform="matrix(1,0,0,1,0,43.2301415687947)"><svg viewBox="0 0 185.7678336 19.547246665016093" height="19.547246665016093" width="185.7678336"><g transform="matrix(1,0,0,1,0,0)"><svg width="185.7678336" viewBox="1.51 -39.11 394.39 41.5" height="19.547246665016093" data-palette-color="#1285eb"><path d="M21.39-35.25L21.39-35.25Q21.39-33.4 20.12-31.88 18.85-30.37 17.02-29.17 15.19-27.98 13.18-27.1 11.18-26.22 9.72-25.63L9.72-25.63Q9.72-24.61 9.67-23.54 9.62-22.46 9.52-21.39L9.52-21.39Q11.08-22.17 13.04-22.85 14.99-23.54 16.75-23.54L16.75-23.54Q18.16-23.54 19.07-22.95 19.97-22.36 19.97-20.9L19.97-20.9Q19.97-19.29 18.82-18.02 17.68-16.75 16.06-15.77 14.45-14.79 12.7-14.11 10.94-13.43 9.72-13.04L9.72-13.04Q9.72-11.43 9.67-9.84 9.62-8.25 9.52-6.69L9.52-6.69Q9.47-5.91 9.35-4.74 9.23-3.56 8.86-2.47 8.5-1.37 7.81-0.56 7.13 0.24 6.05 0.24L6.05 0.24Q5.03 0.24 4.3-0.76 3.56-1.76 3.05-3.32 2.54-4.88 2.22-6.81 1.9-8.74 1.73-10.6 1.56-12.45 1.54-14.01 1.51-15.58 1.51-16.41L1.51-16.41Q1.51-17.04 1.54-18.29 1.56-19.53 1.59-21.04 1.61-22.56 1.68-24.22 1.76-25.88 1.86-27.37 1.95-28.86 2.12-30 2.29-31.15 2.54-31.69L2.54-31.69Q3.08-32.76 5.1-33.81 7.13-34.86 9.62-35.67 12.11-36.47 14.48-36.99 16.85-37.5 18.12-37.5L18.12-37.5Q18.7-37.5 19.26-37.43 19.82-37.35 20.31-37.11 20.8-36.87 21.09-36.43 21.39-35.99 21.39-35.25ZM38.57-18.26L38.57-18.26Q37.89-18.21 37.4-18.38 36.91-18.55 36.42-18.75L36.42-18.75Q35.98-18.95 35.54-19.12 35.1-19.29 34.57-19.24L34.57-19.24Q33.59-19.19 32.83-18.7 32.08-18.21 31.47-17.48 30.86-16.75 30.42-15.84 29.98-14.94 29.73-14.06L29.73-14.06Q29.59-13.48 29.51-12.28 29.44-11.08 29.44-9.72L29.44-9.72Q29.39-8.3 29.39-7.03 29.39-5.76 29.29-5.03L29.29-5.03Q29.25-4.25 29.05-3.2 28.85-2.15 28.44-1.22 28.02-0.29 27.34 0.34 26.66 0.98 25.58 0.98L25.58 0.98Q24.75 0.98 24.14 0.49 23.53 0 23.12-0.81 22.7-1.61 22.43-2.69 22.17-3.76 22.02-4.88L22.02-4.88Q21.87-6.05 21.8-7.23 21.73-8.4 21.7-9.45 21.68-10.5 21.7-11.38 21.73-12.26 21.73-12.79L21.73-12.79Q21.68-14.5 21.56-16.24 21.43-17.97 21.43-19.68L21.43-19.68Q21.43-20.75 21.53-22.07 21.63-23.39 22.07-24.54 22.51-25.68 23.36-26.46 24.22-27.25 25.73-27.25L25.73-27.25Q26.56-27.25 27.15-26.71 27.73-26.17 28.1-25.39 28.46-24.61 28.66-23.73 28.85-22.85 28.9-22.12L28.9-22.12Q30.08-24.02 31.54-25.22 33.01-26.42 35.35-26.51L35.35-26.51Q36.52-26.56 37.67-26.29 38.82-26.03 39.77-25.42 40.72-24.8 41.33-23.83 41.94-22.85 41.99-21.53L41.99-21.53Q42.09-19.97 41.06-19.14 40.04-18.31 38.57-18.26ZM63.18-8.69L63.18-8.69Q63.18-7.03 62.13-5.44 61.08-3.86 59.49-2.61 57.91-1.37 56.1-0.61 54.29 0.15 52.78 0.15L52.78 0.15Q50.19 0.15 48.16-1.15 46.14-2.44 44.77-4.44 43.4-6.45 42.7-8.86 41.99-11.28 41.99-13.57L41.99-13.57Q41.99-16.02 42.67-18.8 43.35-21.58 44.75-23.93 46.14-26.27 48.26-27.83 50.39-29.39 53.32-29.39L53.32-29.39Q54.98-29.39 56.49-28.83 58-28.27 59.13-27.25 60.25-26.22 60.93-24.8 61.62-23.39 61.62-21.63L61.62-21.63Q61.62-19.34 60.64-17.33 59.66-15.33 58.05-13.87 56.44-12.4 54.34-11.5 52.24-10.6 50.04-10.5L50.04-10.5Q50.24-9.08 51.19-8.45 52.14-7.81 53.46-7.81L53.46-7.81Q54.44-7.81 55.37-8.3 56.29-8.79 57.17-9.4 58.05-10.01 58.91-10.5 59.76-10.99 60.64-10.99L60.64-10.99Q61.62-10.99 62.4-10.35 63.18-9.72 63.18-8.69ZM55.27-20.65L55.27-20.65Q55.27-21.29 54.93-21.97 54.58-22.66 53.85-22.66L53.85-22.66Q52.78-22.66 52.05-22.09 51.31-21.53 50.83-20.68 50.34-19.82 50.07-18.85 49.8-17.87 49.75-17.04L49.75-17.04Q50.43-17.19 51.39-17.43 52.34-17.68 53.19-18.09 54.05-18.51 54.66-19.14 55.27-19.78 55.27-20.65ZM85.59-8.69L85.59-8.69Q85.59-7.03 84.54-5.44 83.49-3.86 81.9-2.61 80.31-1.37 78.51-0.61 76.7 0.15 75.19 0.15L75.19 0.15Q72.6 0.15 70.57-1.15 68.55-2.44 67.18-4.44 65.81-6.45 65.1-8.86 64.4-11.28 64.4-13.57L64.4-13.57Q64.4-16.02 65.08-18.8 65.76-21.58 67.16-23.93 68.55-26.27 70.67-27.83 72.8-29.39 75.72-29.39L75.72-29.39Q77.39-29.39 78.9-28.83 80.41-28.27 81.54-27.25 82.66-26.22 83.34-24.8 84.03-23.39 84.03-21.63L84.03-21.63Q84.03-19.34 83.05-17.33 82.07-15.33 80.46-13.87 78.85-12.4 76.75-11.5 74.65-10.6 72.45-10.5L72.45-10.5Q72.65-9.08 73.6-8.45 74.55-7.81 75.87-7.81L75.87-7.81Q76.85-7.81 77.78-8.3 78.7-8.79 79.58-9.4 80.46-10.01 81.32-10.5 82.17-10.99 83.05-10.99L83.05-10.99Q84.03-10.99 84.81-10.35 85.59-9.72 85.59-8.69ZM77.68-20.65L77.68-20.65Q77.68-21.29 77.34-21.97 76.99-22.66 76.26-22.66L76.26-22.66Q75.19-22.66 74.46-22.09 73.72-21.53 73.23-20.68 72.75-19.82 72.48-18.85 72.21-17.87 72.16-17.04L72.16-17.04Q72.84-17.19 73.8-17.43 74.75-17.68 75.6-18.09 76.46-18.51 77.07-19.14 77.68-19.78 77.68-20.65ZM108.58-32.13L108.58-32.13Q108.58-28.56 108.32-25.05 108.05-21.53 108.05-17.97L108.05-17.97Q108.05-15.09 108.22-12.26 108.39-9.42 108.39-6.54L108.39-6.54Q108.39-5.76 108.34-4.66 108.29-3.56 108.02-2.54 107.75-1.51 107.14-0.78 106.53-0.05 105.41-0.05L105.41-0.05Q103.95-0.05 102.99-1.15 102.04-2.25 101.8-3.61L101.8-3.61Q100.87-1.86 99.11-0.63 97.35 0.59 95.3 0.59L95.3 0.59Q93.11 0.59 91.52-0.93 89.93-2.44 88.88-4.59 87.83-6.74 87.32-9.08 86.81-11.43 86.81-13.13L86.81-13.13Q86.81-14.36 86.95-15.92 87.1-17.48 87.47-19.09 87.83-20.7 88.42-22.24 89-23.78 89.91-25 90.81-26.22 92.06-26.95 93.3-27.69 94.91-27.69L94.91-27.69Q96.67-27.69 98.28-26.66 99.89-25.63 100.72-24.12L100.72-24.12 101.16-31.88Q101.21-32.81 101.31-34.06 101.41-35.3 101.72-36.43 102.04-37.55 102.72-38.33 103.41-39.11 104.73-39.11L104.73-39.11Q106.14-39.11 106.92-38.43 107.7-37.74 108.07-36.69 108.44-35.64 108.51-34.42 108.58-33.2 108.58-32.13ZM100.62-10.06L100.62-10.45Q100.62-11.57 100.58-12.65 100.53-13.72 100.58-14.84L100.58-14.84Q100.28-15.48 99.89-16.24 99.5-16.99 98.94-17.65 98.38-18.31 97.7-18.75 97.01-19.19 96.23-19.19L96.23-19.19Q95.35-19.19 94.81-18.65 94.28-18.12 94.03-17.36 93.79-16.6 93.72-15.72 93.64-14.84 93.64-14.21L93.64-14.21Q93.64-13.62 93.74-12.48 93.84-11.33 94.11-10.16 94.37-8.98 94.86-8.11 95.35-7.23 96.18-7.23L96.18-7.23Q96.82-7.23 97.45-7.5 98.09-7.76 98.65-8.18 99.21-8.59 99.72-9.11 100.23-9.62 100.62-10.06L100.62-10.06ZM121.08 1.42L121.08 1.42Q118.59 1.42 116.74 0.1 114.88-1.22 113.61-3.27 112.34-5.32 111.71-7.84 111.07-10.35 111.07-12.79L111.07-12.79Q111.07-15.38 111.71-18.14 112.34-20.9 113.66-23.17 114.98-25.44 117.03-26.88 119.08-28.32 121.91-28.32L121.91-28.32Q124.65-28.32 126.57-26.83 128.5-25.34 129.68-23.12 130.85-20.9 131.34-18.26 131.82-15.63 131.68-13.28L131.68-13.28Q131.53-10.69 130.87-8.06 130.21-5.42 128.94-3.32 127.67-1.22 125.72 0.1 123.77 1.42 121.08 1.42ZM121.57-20.65L121.57-20.65Q120.84-20.65 120.28-19.87 119.71-19.09 119.35-17.97 118.98-16.85 118.79-15.6 118.59-14.36 118.59-13.43L118.59-13.43Q118.59-12.26 118.81-10.89 119.03-9.52 119.42-8.37 119.81-7.23 120.37-6.47 120.93-5.71 121.67-5.71L121.67-5.71Q122.45-5.71 123.01-6.45 123.57-7.18 123.91-8.3 124.26-9.42 124.4-10.77 124.55-12.11 124.55-13.28L124.55-13.28Q124.55-14.36 124.35-15.65 124.16-16.94 123.79-18.07 123.43-19.19 122.86-19.92 122.3-20.65 121.57-20.65ZM163.8-16.11L163.8-16.11Q163.8-15.19 163.8-13.6 163.8-12.01 163.73-10.16 163.66-8.3 163.41-6.42 163.17-4.54 162.66-3.03 162.14-1.51 161.36-0.54 160.58 0.44 159.36 0.44L159.36 0.44Q158.29 0.44 157.72-0.46 157.16-1.37 156.92-2.59 156.67-3.81 156.65-5.08 156.63-6.35 156.63-7.08L156.63-7.08Q156.63-9.28 156.77-11.38 156.92-13.48 156.92-15.67L156.92-15.67Q156.92-15.92 156.92-16.55 156.92-17.19 156.82-17.82 156.72-18.46 156.5-18.95 156.28-19.43 155.84-19.43L155.84-19.43Q154.97-19.43 154.43-18.53 153.89-17.63 153.55-16.41 153.21-15.19 153.06-13.99 152.91-12.79 152.87-12.21L152.87-12.21Q152.77-11.57 152.69-10.3 152.62-9.03 152.5-7.52 152.38-6.01 152.11-4.42 151.84-2.83 151.43-1.54 151.01-0.24 150.38 0.59 149.74 1.42 148.81 1.42L148.81 1.42Q147.64 1.42 147.01 0.39 146.37-0.63 146.08-2 145.79-3.37 145.71-4.79 145.64-6.2 145.64-6.98L145.64-6.98Q145.64-7.81 145.66-8.59 145.69-9.38 145.69-10.21L145.69-10.21Q145.69-10.55 145.69-11.33 145.69-12.11 145.66-13.06 145.64-14.01 145.57-15.04 145.49-16.06 145.35-16.92 145.2-17.77 144.91-18.31 144.61-18.85 144.22-18.85L144.22-18.85Q143.59-18.85 143.05-18.04 142.51-17.24 142.12-16.14 141.73-15.04 141.51-13.96 141.29-12.89 141.29-12.4L141.29-12.4 141.29-12.11Q141.29-9.77 141.59-7.52 141.88-5.27 141.88-2.93L141.88-2.93Q141.88-1.56 141-0.42 140.12 0.73 138.56 0.73L138.56 0.73Q137.44 0.73 136.7-0.12 135.97-0.98 135.48-2.34 134.99-3.71 134.73-5.35 134.46-6.98 134.36-8.57 134.26-10.16 134.24-11.45 134.21-12.74 134.21-13.38L134.21-13.38Q134.21-14.11 134.19-15.53 134.16-16.94 134.24-18.6 134.31-20.26 134.51-22 134.7-23.73 135.14-25.15 135.58-26.56 136.29-27.47 137-28.37 138.12-28.37L138.12-28.37Q139.39-28.37 140.19-27.69 141-27 141-25.63L141-25.63Q141-25.34 140.98-25.05 140.95-24.76 140.9-24.51L140.9-24.51Q141.44-25.29 142.22-26.1 143-26.9 143.91-27.56 144.81-28.22 145.83-28.64 146.86-29.05 147.89-29.05L147.89-29.05Q148.86-29.05 149.64-28.52 150.42-27.98 151.01-27.17 151.6-26.37 151.99-25.44 152.38-24.51 152.52-23.68L152.52-23.68Q153.01-24.56 153.72-25.46 154.43-26.37 155.26-27.05 156.09-27.73 157.09-28.17 158.09-28.61 159.16-28.61L159.16-28.61Q160.19-28.61 160.92-27.88 161.65-27.15 162.19-26 162.73-24.85 163.02-23.41 163.32-21.97 163.51-20.58 163.71-19.19 163.75-17.99 163.8-16.8 163.8-16.11ZM188.07 1.42L188.07 1.42Q185.58 1.42 183.72 0.1 181.86-1.22 180.6-3.27 179.33-5.32 178.69-7.84 178.06-10.35 178.06-12.79L178.06-12.79Q178.06-15.38 178.69-18.14 179.33-20.9 180.64-23.17 181.96-25.44 184.01-26.88 186.06-28.32 188.9-28.32L188.9-28.32Q191.63-28.32 193.56-26.83 195.49-25.34 196.66-23.12 197.83-20.9 198.32-18.26 198.81-15.63 198.66-13.28L198.66-13.28Q198.52-10.69 197.86-8.06 197.2-5.42 195.93-3.32 194.66-1.22 192.7 0.1 190.75 1.42 188.07 1.42ZM188.55-20.65L188.55-20.65Q187.82-20.65 187.26-19.87 186.7-19.09 186.33-17.97 185.97-16.85 185.77-15.6 185.58-14.36 185.58-13.43L185.58-13.43Q185.58-12.26 185.8-10.89 186.02-9.52 186.41-8.37 186.8-7.23 187.36-6.47 187.92-5.71 188.65-5.71L188.65-5.71Q189.43-5.71 189.99-6.45 190.56-7.18 190.9-8.3 191.24-9.42 191.39-10.77 191.53-12.11 191.53-13.28L191.53-13.28Q191.53-14.36 191.34-15.65 191.14-16.94 190.78-18.07 190.41-19.19 189.85-19.92 189.29-20.65 188.55-20.65ZM221.61-29.2L221.61-29.2Q221.61-28.27 221.44-27.42 221.27-26.56 220.83-25.93 220.39-25.29 219.66-24.93 218.92-24.56 217.85-24.56L217.85-24.56Q216.63-24.56 216.04-25.05 215.46-25.54 215.24-26.25 215.02-26.95 215.02-27.78 215.02-28.61 214.94-29.32 214.87-30.03 214.58-30.52 214.28-31.01 213.5-31.01L213.5-31.01Q212.77-31.01 212.31-29.88 211.84-28.76 211.55-27.29 211.26-25.83 211.16-24.44 211.06-23.05 211.06-22.56L211.06-22.56Q211.7-22.66 212.28-22.73 212.87-22.8 213.55-22.8L213.55-22.8Q214.24-22.8 214.97-22.66 215.7-22.51 216.33-22.19 216.97-21.88 217.36-21.31 217.75-20.75 217.75-19.92L217.75-19.92Q217.75-19.04 216.99-18.36 216.24-17.68 215.19-17.21 214.14-16.75 213.06-16.46 211.99-16.16 211.35-16.06L211.35-16.06Q211.5-12.7 211.5-9.28L211.5-9.28Q211.5-6.05 211.35-2.93L211.35-2.93Q211.26-1.42 210.3-0.44 209.35 0.54 207.84 0.54L207.84 0.54Q207.01 0.54 206.42 0.22 205.84-0.1 205.45-0.63 205.06-1.17 204.84-1.86 204.62-2.54 204.57-3.27L204.57-3.27Q204.32-6.2 204.18-9.16 204.03-12.11 204.08-15.09L204.08-15.09Q203.74-15.04 203.42-15.04 203.1-15.04 202.76-15.04L202.76-15.04Q202.17-15.04 201.34-15.19 200.51-15.33 199.76-15.7 199-16.06 198.46-16.6 197.93-17.14 197.93-17.97L197.93-17.97Q197.93-19.04 198.63-19.78 199.34-20.51 200.34-20.97 201.34-21.44 202.44-21.63 203.54-21.83 204.37-21.92L204.37-21.92 204.37-22.71Q204.37-25.1 204.81-27.83 205.25-30.57 206.37-32.91 207.5-35.25 209.45-36.79 211.4-38.33 214.43-38.33L214.43-38.33Q216.33-38.33 217.7-37.52 219.07-36.72 219.95-35.42 220.83-34.13 221.22-32.5 221.61-30.86 221.61-29.2ZM253.15-24.85L253.15-24.85Q253.15-23.93 252.93-22.9 252.71-21.88 252.22-21 251.73-20.12 250.95-19.53 250.17-18.95 249.04-18.95L249.04-18.95Q247.34-18.95 246.51-19.56 245.68-20.17 245.33-21.09 244.99-22.02 244.97-23.07 244.94-24.12 244.89-25.05 244.85-25.98 244.58-26.59 244.31-27.2 243.43-27.2L243.43-27.2Q242.45-27.2 241.72-26.49 240.99-25.78 240.45-24.66 239.91-23.54 239.55-22.12 239.18-20.7 238.96-19.31 238.74-17.92 238.64-16.67 238.55-15.43 238.55-14.65L238.55-14.65Q238.55-13.62 238.62-12.21 238.69-10.79 239.08-9.5 239.47-8.2 240.26-7.3 241.04-6.4 242.5-6.4L242.5-6.4Q243.48-6.4 244.41-6.64 245.33-6.88 246.26-7.2 247.19-7.52 248.14-7.76 249.09-8.01 250.07-8.01L250.07-8.01Q251.19-8.01 251.93-7.1 252.66-6.2 252.66-5.08L252.66-5.08Q252.66-3.52 251.68-2.17 250.7-0.83 249.26 0.2 247.82 1.22 246.14 1.81 244.45 2.39 243.09 2.39L243.09 2.39Q239.57 2.39 237.13 0.81 234.69-0.78 233.18-3.3 231.66-5.81 231-8.91 230.34-12.01 230.34-15.09L230.34-15.09Q230.34-17.14 230.73-19.58 231.12-22.02 231.91-24.49 232.69-26.95 233.88-29.25 235.08-31.54 236.69-33.3 238.3-35.06 240.33-36.13 242.36-37.21 244.8-37.21L244.8-37.21Q247.19-37.21 248.8-36.01 250.41-34.81 251.39-32.98 252.37-31.15 252.76-28.98 253.15-26.81 253.15-24.85ZM272.04-18.26L272.04-18.26Q271.36-18.21 270.87-18.38 270.38-18.55 269.89-18.75L269.89-18.75Q269.45-18.95 269.01-19.12 268.57-19.29 268.04-19.24L268.04-19.24Q267.06-19.19 266.3-18.7 265.55-18.21 264.94-17.48 264.33-16.75 263.89-15.84 263.45-14.94 263.2-14.06L263.2-14.06Q263.06-13.48 262.98-12.28 262.91-11.08 262.91-9.72L262.91-9.72Q262.86-8.3 262.86-7.03 262.86-5.76 262.76-5.03L262.76-5.03Q262.71-4.25 262.52-3.2 262.32-2.15 261.91-1.22 261.49-0.29 260.81 0.34 260.13 0.98 259.05 0.98L259.05 0.98Q258.22 0.98 257.61 0.49 257 0 256.59-0.81 256.17-1.61 255.9-2.69 255.63-3.76 255.49-4.88L255.49-4.88Q255.34-6.05 255.27-7.23 255.19-8.4 255.17-9.45 255.15-10.5 255.17-11.38 255.19-12.26 255.19-12.79L255.19-12.79Q255.15-14.5 255.02-16.24 254.9-17.97 254.9-19.68L254.9-19.68Q254.9-20.75 255-22.07 255.1-23.39 255.54-24.54 255.98-25.68 256.83-26.46 257.68-27.25 259.2-27.25L259.2-27.25Q260.03-27.25 260.61-26.71 261.2-26.17 261.57-25.39 261.93-24.61 262.13-23.73 262.32-22.85 262.37-22.12L262.37-22.12Q263.54-24.02 265.01-25.22 266.47-26.42 268.82-26.51L268.82-26.51Q269.99-26.56 271.14-26.29 272.28-26.03 273.24-25.42 274.19-24.8 274.8-23.83 275.41-22.85 275.46-21.53L275.46-21.53Q275.56-19.97 274.53-19.14 273.51-18.31 272.04-18.26ZM296.65-8.69L296.65-8.69Q296.65-7.03 295.6-5.44 294.55-3.86 292.96-2.61 291.37-1.37 289.57-0.61 287.76 0.15 286.25 0.15L286.25 0.15Q283.66 0.15 281.63-1.15 279.61-2.44 278.24-4.44 276.87-6.45 276.16-8.86 275.46-11.28 275.46-13.57L275.46-13.57Q275.46-16.02 276.14-18.8 276.82-21.58 278.21-23.93 279.61-26.27 281.73-27.83 283.85-29.39 286.78-29.39L286.78-29.39Q288.44-29.39 289.96-28.83 291.47-28.27 292.59-27.25 293.72-26.22 294.4-24.8 295.08-23.39 295.08-21.63L295.08-21.63Q295.08-19.34 294.11-17.33 293.13-15.33 291.52-13.87 289.91-12.4 287.81-11.5 285.71-10.6 283.51-10.5L283.51-10.5Q283.71-9.08 284.66-8.45 285.61-7.81 286.93-7.81L286.93-7.81Q287.91-7.81 288.83-8.3 289.76-8.79 290.64-9.4 291.52-10.01 292.37-10.5 293.23-10.99 294.11-10.99L294.11-10.99Q295.08-10.99 295.87-10.35 296.65-9.72 296.65-8.69ZM288.74-20.65L288.74-20.65Q288.74-21.29 288.4-21.97 288.05-22.66 287.32-22.66L287.32-22.66Q286.25-22.66 285.51-22.09 284.78-21.53 284.29-20.68 283.81-19.82 283.54-18.85 283.27-17.87 283.22-17.04L283.22-17.04Q283.9-17.19 284.86-17.43 285.81-17.68 286.66-18.09 287.52-18.51 288.13-19.14 288.74-19.78 288.74-20.65ZM319.35-6.88L319.35-6.88Q319.35-6.01 319.28-4.59 319.2-3.17 318.86-1.83 318.52-0.49 317.79 0.49 317.05 1.46 315.74 1.46L315.74 1.46Q313.93 1.46 312.95 0.29 311.98-0.88 312.03-2.64L312.03-2.64Q310.46-1.27 308.49-0.49 306.51 0.29 304.46 0.29L304.46 0.29Q303.04 0.29 301.77-0.39 300.5-1.07 299.53-2.15 298.55-3.22 297.96-4.57 297.38-5.91 297.38-7.23L297.38-7.23Q297.38-9.57 298.82-11.33 300.26-13.09 302.36-14.33 304.46-15.58 306.83-16.31 309.19-17.04 311.05-17.29L311.05-17.29Q311.05-17.53 311.07-17.72 311.1-17.92 311.1-18.16L311.1-18.16Q311.1-19.68 310.27-20.61 309.44-21.53 307.92-21.53L307.92-21.53Q306.7-21.53 305.82-21.12 304.95-20.7 304.16-20.19 303.38-19.68 302.6-19.26 301.82-18.85 300.84-18.85L300.84-18.85Q299.77-18.85 299.01-19.53 298.26-20.21 298.26-21.29L298.26-21.29Q298.26-22.9 299.21-24.22 300.16-25.54 301.6-26.44 303.04-27.34 304.73-27.86 306.41-28.37 307.83-28.37L307.83-28.37Q309.14-28.37 310.46-28.05 311.78-27.73 312.95-27.08 314.13-26.42 315.08-25.46 316.03-24.51 316.62-23.24L316.62-23.24Q317.49-21.44 318.03-19.41 318.57-17.38 318.86-15.26 319.15-13.13 319.25-11.01 319.35-8.89 319.35-6.88ZM311.54-8.45L311.54-8.45 311.39-11.77Q311.29-11.77 311.2-11.79 311.1-11.82 311-11.82L311-11.82Q310.37-11.82 309.41-11.5 308.46-11.18 307.58-10.62 306.7-10.06 306.09-9.38 305.48-8.69 305.48-7.96L305.48-7.96Q305.48-7.28 305.97-7.03 306.46-6.79 307.09-6.79L307.09-6.79Q308.17-6.79 309.39-7.35 310.61-7.91 311.54-8.45ZM333.65 1.76L333.65 1.76Q330.19 1.76 328.26 0.85 326.33-0.05 325.38-1.71 324.43-3.37 324.23-5.71 324.03-8.06 324.03-10.94L324.03-10.94Q324.03-13.23 324.18-15.55 324.33-17.87 324.62-20.51L324.62-20.51Q323.94-20.51 323.55-20.48 323.16-20.46 322.91-20.46L322.91-20.46Q321.35-20.46 320.2-21.14 319.05-21.83 319.05-23.24L319.05-23.24Q319.05-24.12 319.71-24.8 320.37-25.49 321.4-25.98 322.42-26.46 323.62-26.76 324.82-27.05 325.89-27.15L325.89-27.15Q325.89-28.52 326.09-30.18 326.28-31.84 326.79-33.28 327.31-34.72 328.19-35.69 329.06-36.67 330.43-36.67L330.43-36.67Q331.21-36.67 331.82-36.21 332.43-35.74 332.82-35.03 333.21-34.33 333.41-33.45 333.61-32.57 333.61-31.74L333.61-31.74Q333.61-30.76 333.46-29.74 333.31-28.71 332.92-27.2L332.92-27.2Q333.75-27.29 334.04-27.32 334.34-27.34 334.58-27.34L334.58-27.34Q335.41-27.34 336.32-27.2 337.22-27.05 337.98-26.71 338.73-26.37 339.22-25.81 339.71-25.24 339.71-24.46L339.71-24.46Q339.71-23.58 339-22.9 338.29-22.22 337.22-21.73 336.14-21.24 334.92-20.97 333.7-20.7 332.63-20.61L332.63-20.61Q332.34-18.6 332.21-16.92 332.09-15.23 331.94-13.53L331.94-13.53Q331.85-12.7 331.77-11.84 331.7-10.99 331.7-10.11L331.7-10.11Q331.7-9.47 331.75-8.62 331.8-7.76 332.09-6.98 332.38-6.2 333.02-5.64 333.65-5.08 334.78-5.08L334.78-5.08Q335.46-5.08 336.19-5.2 336.93-5.32 337.66-5.32L337.66-5.32Q338.93-5.32 339.49-4.44 340.05-3.56 340.05-2.2L340.05-2.2Q340.05-1.17 339.44-0.42 338.83 0.34 337.9 0.81 336.97 1.27 335.83 1.51 334.68 1.76 333.65 1.76ZM349.08-34.08L349.08-34.08Q349.08-33.4 348.71-32.86 348.35-32.32 347.76-31.91 347.18-31.49 346.49-31.27 345.81-31.05 345.22-31.05L345.22-31.05Q344.25-31.05 343.51-31.54 342.78-32.03 342.78-33.06L342.78-33.06Q342.78-33.79 343.15-34.35 343.51-34.91 344.05-35.28 344.59-35.64 345.27-35.84 345.96-36.04 346.59-36.04L346.59-36.04Q347.52-36.04 348.3-35.6 349.08-35.16 349.08-34.08ZM349.47-17.48L349.47-17.48Q349.47-16.8 349.47-16.04 349.47-15.28 349.42-14.6L349.42-14.6Q349.37-13.77 349.37-12.38 349.37-10.99 349.28-9.38 349.18-7.76 348.96-6.1 348.74-4.44 348.25-3.08 347.76-1.71 346.96-0.85 346.15 0 344.93 0.05L344.93 0.05Q344 0.1 343.37-0.68 342.73-1.46 342.32-2.71 341.9-3.96 341.71-5.49 341.51-7.03 341.42-8.47 341.32-9.91 341.32-11.13 341.32-12.35 341.32-12.94L341.32-12.94Q341.32-13.72 341.32-15.16 341.32-16.6 341.42-18.26 341.51-19.92 341.78-21.63 342.05-23.34 342.56-24.76 343.08-26.17 343.91-27.05 344.74-27.93 346-27.93L346-27.93Q347.32-27.93 348.01-26.61 348.69-25.29 349.03-23.54 349.37-21.78 349.42-20.04 349.47-18.31 349.47-17.48ZM362.21 1.42L362.21 1.42Q359.72 1.42 357.87 0.1 356.01-1.22 354.74-3.27 353.47-5.32 352.84-7.84 352.2-10.35 352.2-12.79L352.2-12.79Q352.2-15.38 352.84-18.14 353.47-20.9 354.79-23.17 356.11-25.44 358.16-26.88 360.21-28.32 363.04-28.32L363.04-28.32Q365.78-28.32 367.71-26.83 369.64-25.34 370.81-23.12 371.98-20.9 372.47-18.26 372.96-15.63 372.81-13.28L372.81-13.28Q372.66-10.69 372-8.06 371.34-5.42 370.07-3.32 368.81-1.22 366.85 0.1 364.9 1.42 362.21 1.42ZM362.7-20.65L362.7-20.65Q361.97-20.65 361.41-19.87 360.85-19.09 360.48-17.97 360.11-16.85 359.92-15.6 359.72-14.36 359.72-13.43L359.72-13.43Q359.72-12.26 359.94-10.89 360.16-9.52 360.55-8.37 360.94-7.23 361.51-6.47 362.07-5.71 362.8-5.71L362.8-5.71Q363.58-5.71 364.14-6.45 364.7-7.18 365.05-8.3 365.39-9.42 365.53-10.77 365.68-12.11 365.68-13.28L365.68-13.28Q365.68-14.36 365.48-15.65 365.29-16.94 364.92-18.07 364.56-19.19 364-19.92 363.43-20.65 362.7-20.65ZM389.16 1.37L389.16 1.37Q388.33 1.37 387.85 0.61 387.36-0.15 387.11-1.12 386.87-2.1 386.8-3.1 386.72-4.1 386.72-4.64L386.72-4.64Q386.72-6.1 386.89-7.57 387.06-9.03 387.28-10.5 387.5-11.96 387.67-13.43 387.85-14.89 387.85-16.36L387.85-16.36Q387.85-16.94 387.8-17.63 387.75-18.31 387.58-18.92 387.41-19.53 387.02-19.92 386.62-20.31 385.99-20.31L385.99-20.31Q385.55-20.31 385.01-19.6 384.48-18.9 384.01-17.99 383.55-17.09 383.23-16.19 382.91-15.28 382.91-14.84L382.91-14.84Q382.91-13.77 382.94-12.67 382.96-11.57 382.96-10.45L382.96-10.45 382.96-7.62Q382.91-6.74 382.82-5.81 382.72-4.88 382.52-4L382.52-4Q382.38-3.13 382.08-2.32 381.79-1.51 381.33-0.9 380.86-0.29 380.23 0.1 379.59 0.49 378.71 0.49L378.71 0.49Q377.74 0.49 377.1-0.15 376.47-0.78 376.08-1.78 375.69-2.78 375.52-4.03 375.35-5.27 375.27-6.47 375.2-7.67 375.22-8.67 375.25-9.67 375.25-10.25L375.25-10.25 375.25-12.55Q375.25-14.4 375.17-16.21 375.1-18.02 375.1-19.82L375.1-19.82Q375.1-20.8 375.13-22.31 375.15-23.83 375.49-25.27 375.83-26.71 376.62-27.73 377.4-28.76 378.91-28.76L378.91-28.76Q379.59-28.76 380.13-28.32 380.67-27.88 381.08-27.25 381.5-26.61 381.77-25.88 382.04-25.15 382.18-24.61L382.18-24.61Q382.67-25.29 383.33-25.93 383.99-26.56 384.82-27.05 385.65-27.54 386.67-27.83 387.7-28.13 389.02-28.13L389.02-28.13Q391.51-28.13 392.9-26.93 394.29-25.73 394.95-23.95 395.61-22.17 395.76-20.12 395.9-18.07 395.9-16.41L395.9-16.41Q395.9-15.58 395.76-13.94 395.61-12.3 395.29-10.33 394.97-8.35 394.44-6.27 393.9-4.2 393.17-2.49 392.44-0.78 391.43 0.29 390.43 1.37 389.16 1.37Z" opacity="1" transform="matrix(1,0,0,1,0,0)" fill="#1285eb" class="undefined-text-1" data-fill-palette-color="secondary" id="text-1"></path></svg></g></svg></g></svg></g></svg></g></svg></g></svg></g></svg></g><g><path d="M0 123.6c0-68.262 55.338-123.6 123.6-123.6 55.917 0 103.162 37.132 118.421 88.083h-1.648c-15.209-50.068-61.736-86.506-116.773-86.506-67.391 0-122.023 54.632-122.023 122.023 0 67.391 54.632 122.023 122.023 122.023 55.038 0 101.565-36.438 116.773-86.506h1.648c-15.26 50.951-62.504 88.083-118.421 88.083-68.262 0-123.6-55.338-123.6-123.6z" fill="#1285eb" stroke="transparent" data-fill-palette-color="tertiary"></path></g></svg></g></svg><rect width="395.52" height="247.2" fill="none" stroke="none" visibility="hidden"></rect></g></svg></g></svg>