<svg width="181" height="61" fill="none" xmlns="http://www.w3.org/2000/svg"><g filter="url(#filter0_d_872_7)"><path d="M42.232 35l2.716-19.6h2.94l4.788 8.932 4.76-8.932h2.94L63.092 35h-3.724l-1.876-14.728.98.196-5.796 10.416-5.824-10.388.98-.196L45.956 35h-3.724zm28.517 0l-6.972-19.6h3.612l5.404 15.456h-.728L77.497 15.4h3.612L74.137 35H70.75zm16.328 0V18.872h-5.544V15.4h14.672v3.472h-5.544V35h-3.584z" fill="#42E8E0"/><path d="M107.649 35.392c-1.988 0-3.738-.42-5.25-1.26a9.073 9.073 0 01-3.542-3.556c-.84-1.53-1.26-3.323-1.26-5.376 0-2.053.434-3.84 1.302-5.362a9.192 9.192 0 013.612-3.556c1.531-.85 3.281-1.274 5.25-1.274 1.036 0 1.984.112 2.842.336.859.215 1.601.486 2.226.812l-.392 3.416a14.049 14.049 0 00-2.198-.798c-.746-.215-1.582-.322-2.506-.322-1.372 0-2.52.29-3.444.868a5.466 5.466 0 00-2.072 2.394c-.466 1.018-.7 2.18-.7 3.486 0 1.307.229 2.469.686 3.486.458 1.017 1.139 1.816 2.044 2.394.915.579 2.049.868 3.402.868.943 0 1.788-.102 2.534-.308a15.974 15.974 0 002.254-.812l.392 3.416a12.22 12.22 0 01-2.436.826c-.877.215-1.792.322-2.744.322zm16.425 0c-1.867 0-3.528-.42-4.984-1.26-1.456-.85-2.6-2.035-3.43-3.556-.831-1.53-1.246-3.323-1.246-5.376 0-2.053.415-3.84 1.246-5.362.83-1.53 1.974-2.716 3.43-3.556 1.456-.85 3.117-1.274 4.984-1.274 1.866 0 3.528.425 4.984 1.274 1.456.84 2.599 2.026 3.43 3.556.83 1.521 1.246 3.309 1.246 5.362s-.416 3.846-1.246 5.376c-.831 1.521-1.974 2.707-3.43 3.556-1.456.84-3.118 1.26-4.984 1.26zm0-3.472c1.306 0 2.398-.29 3.276-.868.877-.578 1.535-1.372 1.974-2.38.438-1.017.658-2.175.658-3.472 0-1.297-.22-2.45-.658-3.458-.439-1.017-1.097-1.815-1.974-2.394-.878-.578-1.97-.868-3.276-.868-1.307 0-2.399.29-3.276.868-.878.579-1.536 1.377-1.974 2.394-.439 1.008-.658 2.16-.658 3.458 0 1.297.219 2.455.658 3.472.438 1.008 1.096 1.802 1.974 2.38.877.579 1.969.868 3.276.868zM136.863 35V15.4h3.584V35h-3.584zm7.902 0V15.4h3.528l8.372 12.656V15.4h3.584V35h-2.94l-8.96-13.44V35h-3.584z" fill="#fff"/></g><path d="M23.537 17.277c-2.35-2.075-5.378-3.07-8.416-2.764-3.038.305-5.838 1.884-7.784 4.39-1.946 2.506-2.878 5.734-2.592 8.973.285 3.24 1.766 6.225 4.117 8.3l7.337-9.45 7.337-9.449z" fill="#42E8E0"/><path d="M28.139 14.824c2.35 2.075 3.83 5.06 4.117 8.3.285 3.24-.647 6.467-2.593 8.973-1.946 2.506-4.746 4.086-7.784 4.39-3.038.305-6.065-.69-8.415-2.764l7.337-9.45 7.338-9.45z" fill="#fff"/><defs><filter id="filter0_d_872_7" x="22.232" y=".008" width="158.017" height="60.384" filterUnits="userSpaceOnUse" color-interpolation-filters="sRGB"><feFlood flood-opacity="0" result="BackgroundImageFix"/><feColorMatrix in="SourceAlpha" values="0 0 0 0 0 0 0 0 0 0 0 0 0 0 0 0 0 0 127 0" result="hardAlpha"/><feOffset dy="5"/><feGaussianBlur stdDeviation="10"/><feComposite in2="hardAlpha" operator="out"/><feColorMatrix values="0 0 0 0 0.145098 0 0 0 0 0.929412 0 0 0 0 0.980392 0 0 0 0.31 0"/><feBlend in2="BackgroundImageFix" result="effect1_dropShadow_872_7"/><feBlend in="SourceGraphic" in2="effect1_dropShadow_872_7" result="shape"/></filter></defs></svg>