<svg xmlns="http://www.w3.org/2000/svg" version="1.1" xmlns:xlink="http://www.w3.org/1999/xlink" xmlns:svgjs="http://svgjs.dev/svgjs" width="1000" height="750" viewBox="0 0 1000 750"><rect width="1000" height="750" fill="#ffffff"></rect><g transform="matrix(0.834,0,0,0.834,82.49454906446039,264.4164652475098)"><svg viewBox="0 0 396 105" data-background-color="#ffffff" preserveAspectRatio="xMidYMid meet" height="265" width="1000" xmlns="http://www.w3.org/2000/svg" xmlns:xlink="http://www.w3.org/1999/xlink"><defs></defs><g id="tight-bounds" transform="matrix(1,0,0,1,0.23999845024206934,0.03731120316490433)"><svg viewBox="0 0 395.52 104.92537759367019" height="104.92537759367019" width="395.52"><g><svg viewBox="0 0 395.52 104.92537759367019" height="104.92537759367019" width="395.52"><g><svg viewBox="0 0 395.52 104.92537759367019" height="104.92537759367019" width="395.52"><g><svg viewBox="0 0 395.52 104.92537759367019" height="104.92537759367019" width="395.52"><g><svg viewBox="0 0 395.52 56.591734963221676" height="56.591734963221676" width="395.52"><g transform="matrix(1,0,0,1,0,0)"><svg width="395.52" viewBox="3.950000047683716 -40 283.0347595214844 40.5" height="56.591734963221676" data-palette-color="#202046"><path d="M30.95-11.3L30.95-8Q30.95-3.95 28.25-1.95L28.25-1.95Q26.95-1 25.58-0.48 24.2 0.05 22.9 0.05L22.9 0.05 12 0.05Q10.7 0.05 9.33-0.48 7.95-1 6.65-1.95L6.65-1.95Q5.35-2.95 4.65-4.42 3.95-5.9 3.95-8L3.95-8 3.95-31.75Q3.95-33.75 4.65-35.27 5.35-36.8 6.65-37.75L6.65-37.75 6.6-37.75Q7.9-38.6 9.3-39.15 10.7-39.7 12-39.7L12-39.7 22.9-39.7Q24.2-39.7 25.6-39.15 27-38.6 28.3-37.75L28.3-37.75 28.25-37.75Q29.55-36.8 30.25-35.27 30.95-33.75 30.95-31.75L30.95-31.75 30.95-28.3Q30.95-25.9 27.95-25.9L27.95-25.9Q25-25.9 25-28.3L25-28.3 25-31.3Q25-32.55 24.25-33.6 23.5-34.65 21.65-34.65L21.65-34.65 13.25-34.65Q11.4-34.65 10.65-33.6 9.9-32.55 9.9-31.3L9.9-31.3 9.9-8.4Q9.9-7.1 10.65-6.05 11.4-5 13.25-5L13.25-5 21.65-5Q23.5-5 24.25-6.05 25-7.1 25-8.4L25-8.4 25-11.3Q25-13.65 27.95-13.65L27.95-13.65Q30.95-13.65 30.95-11.3L30.95-11.3ZM61.8-0.6L52.35-16.45 48.5-16.45Q47.65-16.45 47.17-17.13 46.7-17.8 46.7-18.95L46.7-18.95Q46.7-21.5 48.8-21.5L48.8-21.5 54.65-21.5Q56.5-21.5 57.25-22.55 58-23.6 58-24.85L58-24.85 58-31.3Q58-32.55 57.25-33.6 56.5-34.65 54.65-34.65L54.65-34.65 44.1-34.65 44.1-2.05Q44.1 0.35 41.15 0.35L41.15 0.35Q38.2 0.35 38.2-2.05L38.2-2.05 38.2-36.7Q38.2-38.5 39.12-39.1 40.05-39.7 41.35-39.7L41.35-39.7 55.9-39.7Q57.2-39.7 58.6-39.15 60-38.6 61.3-37.75L61.3-37.75 61.25-37.75Q62.55-36.8 63.25-35.27 63.95-33.75 63.95-31.75L63.95-31.75 63.95-24.45Q63.95-20.4 61.25-18.4L61.25-18.4Q60.7-18 60.07-17.65 59.45-17.3 58.8-16.95L58.8-16.95 66.8-3.75Q66.95-3.5 67.1-3.1 67.25-2.7 67.25-2.45L67.25-2.45Q67.25-1.25 65.55-0.15L65.55-0.15 65.55-0.2Q64.4 0.5 63.6 0.5L63.6 0.5Q62.45 0.5 61.75-0.65L61.75-0.65 61.8-0.6ZM93.4 0.05L75.1 0.05Q73.25 0.05 72.6-0.9 71.95-1.85 71.95-3L71.95-3 71.95-36.7Q71.95-37.85 72.6-38.78 73.25-39.7 75.1-39.7L75.1-39.7 92.5-39.7Q94.35-39.7 94.45-37.2L94.45-37.2Q94.55-34.65 92.5-34.65L92.5-34.65 77.85-34.65 77.85-5 93.4-5Q95.25-5 95.3-2.55L95.3-2.55Q95.4 0.05 93.4 0.05L93.4 0.05ZM90.65-20.65L90.65-20.65Q90.65-18.9 89.42-17.7 88.2-16.5 86.45-16.5L86.45-16.5Q84.75-16.5 83.55-17.7 82.35-18.9 82.35-20.65L82.35-20.65Q82.35-22.4 83.55-23.6 84.75-24.8 86.45-24.8L86.45-24.8Q88.2-24.8 89.42-23.6 90.65-22.4 90.65-20.65ZM108.69-39.7L119.59-39.7Q120.89-39.7 122.29-39.15 123.69-38.6 124.99-37.75L124.99-37.75 124.94-37.75Q126.24-36.8 126.94-35.27 127.64-33.75 127.64-31.75L127.64-31.75 127.64-8Q127.64-3.95 124.94-1.95L124.94-1.95Q123.64-1 122.27-0.48 120.89 0.05 119.59 0.05L119.59 0.05 108.69 0.05Q107.39 0.05 106.02-0.48 104.64-1 103.34-1.95L103.34-1.95Q102.04-2.95 101.34-4.42 100.64-5.9 100.64-8L100.64-8 100.64-31.75Q100.64-33.75 101.34-35.27 102.04-36.8 103.34-37.75L103.34-37.75 103.29-37.75Q104.59-38.6 105.99-39.15 107.39-39.7 108.69-39.7L108.69-39.7ZM109.94-5L118.34-5Q120.19-5 120.94-6.05 121.69-7.1 121.69-8.4L121.69-8.4 121.69-31.3Q121.69-32.55 120.94-33.6 120.19-34.65 118.34-34.65L118.34-34.65 109.94-34.65Q108.09-34.65 107.34-33.6 106.59-32.55 106.59-31.3L106.59-31.3 106.59-8.4Q106.59-7.1 107.34-6.05 108.09-5 109.94-5L109.94-5ZM146.94 0.25L146.94 0.25Q145.94 0.25 144.81-0.08 143.69-0.4 143.19-1.3L143.19-1.3Q142.04-5.2 140.79-9.3 139.54-13.4 138.29-17.35L138.29-17.35Q136.89-22 135.29-27.03 133.69-32.05 132.29-36.65L132.29-36.65Q131.99-37.75 132.64-38.58 133.29-39.4 134.49-39.8L134.49-39.8Q135.24-40 135.79-40L135.79-40Q137.49-40 137.99-38.3L137.99-38.3 141.69-26.45Q142.19-24.65 142.87-22.5 143.54-20.35 144.24-18.1 144.94-15.85 145.64-13.63 146.34-11.4 146.94-9.5L146.94-9.5Q147.89-12.65 149.01-16.32 150.14-20 151.31-23.8 152.49-27.6 153.64-31.33 154.79-35.05 155.79-38.3L155.79-38.3Q156.34-40 157.94-40L157.94-40Q158.54-40 159.34-39.8L159.34-39.8Q162.09-39.05 161.49-36.65L161.49-36.65Q158.79-27.9 156.04-19 153.29-10.1 150.59-1.3L150.59-1.3Q150.19-0.3 149.12-0.03 148.04 0.25 146.94 0.25ZM187.74 0.05L169.44 0.05Q167.59 0.05 166.94-0.9 166.29-1.85 166.29-3L166.29-3 166.29-36.7Q166.29-37.85 166.94-38.78 167.59-39.7 169.44-39.7L169.44-39.7 186.84-39.7Q188.69-39.7 188.79-37.2L188.79-37.2Q188.89-34.65 186.84-34.65L186.84-34.65 172.19-34.65 172.19-5 187.74-5Q189.59-5 189.64-2.55L189.64-2.55Q189.74 0.05 187.74 0.05L187.74 0.05ZM184.99-20.65L184.99-20.65Q184.99-18.9 183.76-17.7 182.54-16.5 180.79-16.5L180.79-16.5Q179.09-16.5 177.89-17.7 176.69-18.9 176.69-20.65L176.69-20.65Q176.69-22.4 177.89-23.6 179.09-24.8 180.79-24.8L180.79-24.8Q182.54-24.8 183.76-23.6 184.99-22.4 184.99-20.65ZM218.64-0.6L209.19-16.45 205.34-16.45Q204.49-16.45 204.01-17.13 203.54-17.8 203.54-18.95L203.54-18.95Q203.54-21.5 205.64-21.5L205.64-21.5 211.49-21.5Q213.34-21.5 214.09-22.55 214.84-23.6 214.84-24.85L214.84-24.85 214.84-31.3Q214.84-32.55 214.09-33.6 213.34-34.65 211.49-34.65L211.49-34.65 200.94-34.65 200.94-2.05Q200.94 0.35 197.99 0.35L197.99 0.35Q195.04 0.35 195.04-2.05L195.04-2.05 195.04-36.7Q195.04-38.5 195.96-39.1 196.89-39.7 198.19-39.7L198.19-39.7 212.74-39.7Q214.04-39.7 215.44-39.15 216.84-38.6 218.14-37.75L218.14-37.75 218.09-37.75Q219.39-36.8 220.09-35.27 220.79-33.75 220.79-31.75L220.79-31.75 220.79-24.45Q220.79-20.4 218.09-18.4L218.09-18.4Q217.54-18 216.91-17.65 216.29-17.3 215.64-16.95L215.64-16.95 223.64-3.75Q223.79-3.5 223.94-3.1 224.09-2.7 224.09-2.45L224.09-2.45Q224.09-1.25 222.39-0.15L222.39-0.15 222.39-0.2Q221.24 0.5 220.44 0.5L220.44 0.5Q219.29 0.5 218.59-0.65L218.59-0.65 218.64-0.6ZM238.03-22.85L247.68-22.85Q248.98-22.85 250.38-22.3 251.78-21.75 253.08-20.85L253.08-20.85 253.03-20.85Q254.33-19.95 255.03-18.4 255.73-16.85 255.73-14.85L255.73-14.85 255.73-8Q255.73-3.95 253.03-1.95L253.03-1.95Q251.73-1 250.36-0.48 248.98 0.05 247.68 0.05L247.68 0.05 236.78 0.05Q235.48 0.05 234.11-0.48 232.73-1 231.43-1.95L231.43-1.95Q228.73-3.95 228.73-8L228.73-8 228.73-11.3Q228.73-13.65 231.68-13.65L231.68-13.65Q234.68-13.65 234.68-11.3L234.68-11.3 234.68-8.4Q234.68-7.1 235.43-6.05 236.18-5 238.03-5L238.03-5 246.43-5Q248.28-5 249.03-6.05 249.78-7.1 249.78-8.4L249.78-8.4 249.78-14.45Q249.78-15.7 249.03-16.78 248.28-17.85 246.43-17.85L246.43-17.85 236.78-17.85Q234.18-17.85 231.43-19.75L231.43-19.75Q228.73-21.85 228.73-25.8L228.73-25.8 228.73-31.75Q228.73-33.75 229.43-35.27 230.13-36.8 231.43-37.75L231.43-37.75 231.38-37.75Q232.68-38.6 234.08-39.15 235.48-39.7 236.78-39.7L236.78-39.7 247.68-39.7Q248.98-39.7 250.38-39.15 251.78-38.6 253.08-37.75L253.08-37.75 253.03-37.75Q254.33-36.8 255.03-35.27 255.73-33.75 255.73-31.75L255.73-31.75 255.73-28.8Q255.73-26.45 252.73-26.45L252.73-26.45Q249.78-26.45 249.78-28.8L249.78-28.8 249.78-31.3Q249.78-32.55 249.03-33.6 248.28-34.65 246.43-34.65L246.43-34.65 238.03-34.65Q236.18-34.65 235.43-33.6 234.68-32.55 234.68-31.3L234.68-31.3 234.68-26.2Q234.68-24.9 235.43-23.88 236.18-22.85 238.03-22.85L238.03-22.85ZM285.08 0.05L266.78 0.05Q264.93 0.05 264.28-0.9 263.63-1.85 263.63-3L263.63-3 263.63-36.7Q263.63-37.85 264.28-38.78 264.93-39.7 266.78-39.7L266.78-39.7 284.18-39.7Q286.03-39.7 286.13-37.2L286.13-37.2Q286.23-34.65 284.18-34.65L284.18-34.65 269.53-34.65 269.53-5 285.08-5Q286.93-5 286.98-2.55L286.98-2.55Q287.08 0.05 285.08 0.05L285.08 0.05ZM282.33-20.65L282.33-20.65Q282.33-18.9 281.11-17.7 279.88-16.5 278.13-16.5L278.13-16.5Q276.43-16.5 275.23-17.7 274.03-18.9 274.03-20.65L274.03-20.65Q274.03-22.4 275.23-23.6 276.43-24.8 278.13-24.8L278.13-24.8Q279.88-24.8 281.11-23.6 282.33-22.4 282.33-20.65Z" opacity="1" transform="matrix(1,0,0,1,0,0)" fill="#202046" class="undefined-text-0" data-fill-palette-color="primary" id="text-0"></path></svg></g></svg></g><g transform="matrix(1,0,0,1,0,69.95168538639919)"><svg viewBox="0 0 395.52 34.97369220727099" height="34.97369220727099" width="395.52"><g transform="matrix(1,0,0,1,0,0)"><svg width="395.52" viewBox="4.050000190734863 -39.849998474121094 459.1500244140625 40.599998474121094" height="34.97369220727099" data-palette-color="#3886ce"><path d="M10.65 0L4.05 0 4.05-34.55 23.6-34.55 22.9-29.65 10.65-29.65 10.65-19.3 21.3-19.3 21.3-14.4 10.65-14.4 10.65 0ZM41.38-27.15Q42.83-27.15 44.03-26.8L44.03-26.8 42.93-20.6Q41.73-20.9 40.58-20.9L40.58-20.9Q38.23-20.9 36.88-19.23 35.53-17.55 34.73-14.1L34.73-14.1 34.73 0 28.33 0 28.33-26.45 33.88-26.45 34.48-21.25Q35.43-24.1 37.23-25.63 39.03-27.15 41.38-27.15L41.38-27.15ZM69.77-13.85Q69.77-13.35 69.62-11.25L69.62-11.25 53.02-11.25Q53.32-7.4 55.02-5.75 56.72-4.1 59.52-4.1L59.52-4.1Q61.27-4.1 62.82-4.67 64.37-5.25 66.12-6.45L66.12-6.45 68.77-2.8Q64.37 0.75 58.97 0.75L58.97 0.75Q52.92 0.75 49.64-2.95 46.37-6.65 46.37-13.05L46.37-13.05Q46.37-17.1 47.77-20.33 49.17-23.55 51.82-25.38 54.47-27.2 58.12-27.2L58.12-27.2Q63.67-27.2 66.72-23.68 69.77-20.15 69.77-13.85L69.77-13.85ZM63.42-15.4L63.42-15.7Q63.42-22.65 58.27-22.65L58.27-22.65Q55.92-22.65 54.59-20.93 53.27-19.2 53.02-15.4L53.02-15.4 63.42-15.4ZM97.25-13.85Q97.25-13.35 97.1-11.25L97.1-11.25 80.5-11.25Q80.8-7.4 82.5-5.75 84.2-4.1 87-4.1L87-4.1Q88.75-4.1 90.3-4.67 91.85-5.25 93.6-6.45L93.6-6.45 96.25-2.8Q91.85 0.75 86.45 0.75L86.45 0.75Q80.4 0.75 77.12-2.95 73.85-6.65 73.85-13.05L73.85-13.05Q73.85-17.1 75.25-20.33 76.65-23.55 79.3-25.38 81.95-27.2 85.6-27.2L85.6-27.2Q91.15-27.2 94.2-23.68 97.25-20.15 97.25-13.85L97.25-13.85ZM90.9-15.4L90.9-15.7Q90.9-22.65 85.75-22.65L85.75-22.65Q83.4-22.65 82.07-20.93 80.75-19.2 80.5-15.4L80.5-15.4 90.9-15.4ZM118.88-37.75L125.28-37.05 125.28 0 119.63 0 119.18-3.35Q117.93-1.45 116.01-0.35 114.08 0.75 111.63 0.75L111.63 0.75Q106.78 0.75 104.18-3 101.58-6.75 101.58-13.2L101.58-13.2Q101.58-17.25 102.88-20.43 104.18-23.6 106.61-25.4 109.03-27.2 112.23-27.2L112.23-27.2Q116.03-27.2 118.88-24.35L118.88-24.35 118.88-37.75ZM113.43-4.1Q115.13-4.1 116.43-4.93 117.73-5.75 118.88-7.5L118.88-7.5 118.88-19.6Q117.73-21 116.56-21.7 115.38-22.4 113.83-22.4L113.83-22.4Q111.28-22.4 109.81-20.13 108.33-17.85 108.33-13.25L108.33-13.25Q108.33-8.35 109.63-6.23 110.93-4.1 113.43-4.1L113.43-4.1ZM143.82-27.2Q149.67-27.2 152.94-23.48 156.22-19.75 156.22-13.25L156.22-13.25Q156.22-9.1 154.72-5.93 153.22-2.75 150.42-1 147.62 0.75 143.77 0.75L143.77 0.75Q137.92 0.75 134.62-2.98 131.32-6.7 131.32-13.25L131.32-13.25Q131.32-17.4 132.82-20.55 134.32-23.7 137.14-25.45 139.97-27.2 143.82-27.2L143.82-27.2ZM143.82-22.35Q138.07-22.35 138.07-13.25L138.07-13.25Q138.07-8.55 139.49-6.33 140.92-4.1 143.77-4.1L143.77-4.1Q146.62-4.1 148.04-6.35 149.47-8.6 149.47-13.25L149.47-13.25Q149.47-17.9 148.04-20.13 146.62-22.35 143.82-22.35L143.82-22.35ZM190.3-27.2Q193.5-27.2 195.4-25.03 197.3-22.85 197.3-19.15L197.3-19.15 197.3 0 190.9 0 190.9-18.15Q190.9-22.4 188-22.4L188-22.4Q186.45-22.4 185.32-21.43 184.2-20.45 183-18.4L183-18.4 183 0 176.6 0 176.6-18.15Q176.6-22.4 173.7-22.4L173.7-22.4Q172.1-22.4 170.97-21.43 169.85-20.45 168.65-18.4L168.65-18.4 168.65 0 162.25 0 162.25-26.45 167.8-26.45 168.3-23Q171.3-27.2 175.95-27.2L175.95-27.2Q178.25-27.2 179.92-26.03 181.6-24.85 182.35-22.75L182.35-22.75Q183.95-24.9 185.87-26.05 187.8-27.2 190.3-27.2L190.3-27.2ZM228.12-27.2Q233.97-27.2 237.24-23.48 240.52-19.75 240.52-13.25L240.52-13.25Q240.52-9.1 239.02-5.93 237.52-2.75 234.72-1 231.92 0.75 228.07 0.75L228.07 0.75Q222.22 0.75 218.92-2.98 215.62-6.7 215.62-13.25L215.62-13.25Q215.62-17.4 217.12-20.55 218.62-23.7 221.44-25.45 224.27-27.2 228.12-27.2L228.12-27.2ZM228.12-22.35Q222.37-22.35 222.37-13.25L222.37-13.25Q222.37-8.55 223.79-6.33 225.22-4.1 228.07-4.1L228.07-4.1Q230.92-4.1 232.34-6.35 233.77-8.6 233.77-13.25L233.77-13.25Q233.77-17.9 232.34-20.13 230.92-22.35 228.12-22.35L228.12-22.35ZM257.25-32.9Q255.35-32.9 254.52-32.02 253.7-31.15 253.7-29.25L253.7-29.25 253.7-26.45 260.05-26.45 259.35-21.85 253.7-21.85 253.7 0 247.3 0 247.3-21.85 243-21.85 243-26.45 247.3-26.45 247.3-29.35Q247.3-33.1 249.72-35.43 252.15-37.75 256.6-37.75L256.6-37.75Q260.1-37.75 263.45-36.2L263.45-36.2 261.6-31.9Q259.45-32.9 257.25-32.9L257.25-32.9ZM289.87-35.3Q293.02-35.3 295.37-34.4 297.72-33.5 299.97-31.65L299.97-31.65 296.62-27.75Q293.57-30.2 290.22-30.2L290.22-30.2Q286.37-30.2 284.04-27.1 281.72-24 281.72-17.35L281.72-17.35Q281.72-10.85 284.02-7.7 286.32-4.55 290.22-4.55L290.22-4.55Q292.27-4.55 293.87-5.28 295.47-6 297.27-7.35L297.27-7.35 300.37-3.45Q298.62-1.65 295.94-0.45 293.27 0.75 289.97 0.75L289.97 0.75Q285.47 0.75 282.02-1.35 278.57-3.45 276.67-7.53 274.77-11.6 274.77-17.35L274.77-17.35Q274.77-23 276.74-27.05 278.72-31.1 282.14-33.2 285.57-35.3 289.87-35.3L289.87-35.3ZM317.95-27.15Q319.4-27.15 320.6-26.8L320.6-26.8 319.5-20.6Q318.3-20.9 317.15-20.9L317.15-20.9Q314.8-20.9 313.45-19.23 312.1-17.55 311.3-14.1L311.3-14.1 311.3 0 304.9 0 304.9-26.45 310.45-26.45 311.05-21.25Q312-24.1 313.8-25.63 315.6-27.15 317.95-27.15L317.95-27.15ZM346.33-13.85Q346.33-13.35 346.18-11.25L346.18-11.25 329.58-11.25Q329.88-7.4 331.58-5.75 333.28-4.1 336.08-4.1L336.08-4.1Q337.83-4.1 339.38-4.67 340.93-5.25 342.68-6.45L342.68-6.45 345.33-2.8Q340.93 0.75 335.53 0.75L335.53 0.75Q329.48 0.75 326.21-2.95 322.93-6.65 322.93-13.05L322.93-13.05Q322.93-17.1 324.33-20.33 325.73-23.55 328.38-25.38 331.03-27.2 334.68-27.2L334.68-27.2Q340.23-27.2 343.28-23.68 346.33-20.15 346.33-13.85L346.33-13.85ZM339.98-15.4L339.98-15.7Q339.98-22.65 334.83-22.65L334.83-22.65Q332.48-22.65 331.16-20.93 329.83-19.2 329.58-15.4L329.58-15.4 339.98-15.4ZM371.67-7Q371.67-5.45 372.14-4.73 372.62-4 373.67-3.6L373.67-3.6 372.32 0.65Q370.07 0.45 368.64-0.45 367.22-1.35 366.47-3.2L366.47-3.2Q365.12-1.2 363.09-0.23 361.07 0.75 358.57 0.75L358.57 0.75Q354.62 0.75 352.32-1.5 350.02-3.75 350.02-7.4L350.02-7.4Q350.02-11.7 353.14-13.98 356.27-16.25 362.07-16.25L362.07-16.25 365.37-16.25 365.37-17.75Q365.37-20.3 364.19-21.33 363.02-22.35 360.42-22.35L360.42-22.35Q357.52-22.35 353.42-20.95L353.42-20.95 351.92-25.3Q356.87-27.2 361.52-27.2L361.52-27.2Q371.67-27.2 371.67-18.1L371.67-18.1 371.67-7ZM360.27-3.9Q363.52-3.9 365.37-7.15L365.37-7.15 365.37-12.5 362.72-12.5Q356.52-12.5 356.52-7.9L356.52-7.9Q356.52-6 357.47-4.95 358.42-3.9 360.27-3.9L360.27-3.9ZM392.35-5.35L394.6-1.25Q393.2-0.25 391.47 0.25 389.75 0.75 387.95 0.75L387.95 0.75Q384.05 0.7 382.02-1.48 380-3.65 380-7.9L380-7.9 380-21.85 375.85-21.85 375.85-26.45 380-26.45 380-32.3 386.4-33.05 386.4-26.45 392.55-26.45 391.9-21.85 386.4-21.85 386.4-8.05Q386.4-6.1 387.07-5.25 387.75-4.4 389.2-4.4L389.2-4.4Q390.65-4.4 392.35-5.35L392.35-5.35ZM398.23-26.45L404.63-26.45 404.63 0 398.23 0 398.23-26.45ZM401.38-39.85Q403.18-39.85 404.31-38.73 405.43-37.6 405.43-35.95L405.43-35.95Q405.43-34.3 404.31-33.2 403.18-32.1 401.38-32.1L401.38-32.1Q399.63-32.1 398.51-33.2 397.38-34.3 397.38-35.95L397.38-35.95Q397.38-37.6 398.51-38.73 399.63-39.85 401.38-39.85L401.38-39.85ZM423.17-27.2Q429.02-27.2 432.29-23.48 435.57-19.75 435.57-13.25L435.57-13.25Q435.57-9.1 434.07-5.93 432.57-2.75 429.77-1 426.97 0.75 423.12 0.75L423.12 0.75Q417.27 0.75 413.97-2.98 410.67-6.7 410.67-13.25L410.67-13.25Q410.67-17.4 412.17-20.55 413.67-23.7 416.49-25.45 419.32-27.2 423.17-27.2L423.17-27.2ZM423.17-22.35Q417.42-22.35 417.42-13.25L417.42-13.25Q417.42-8.55 418.84-6.33 420.27-4.1 423.12-4.1L423.12-4.1Q425.97-4.1 427.39-6.35 428.82-8.6 428.82-13.25L428.82-13.25Q428.82-17.9 427.39-20.13 425.97-22.35 423.17-22.35L423.17-22.35ZM455.7-27.2Q459.25-27.2 461.22-25.08 463.2-22.95 463.2-19.15L463.2-19.15 463.2 0 456.8 0 456.8-18.15Q456.8-20.5 455.97-21.45 455.15-22.4 453.55-22.4L453.55-22.4Q451.9-22.4 450.57-21.38 449.25-20.35 448-18.4L448-18.4 448 0 441.6 0 441.6-26.45 447.15-26.45 447.65-23Q450.9-27.2 455.7-27.2L455.7-27.2Z" opacity="1" transform="matrix(1,0,0,1,0,0)" fill="#3886ce" class="undefined-text-1" data-fill-palette-color="secondary" id="text-1"></path></svg></g></svg></g></svg></g></svg></g><g></g></svg></g></svg><rect width="395.52" height="104.92537759367019" fill="none" stroke="none" visibility="hidden"></rect></g></svg></g></svg>