<svg xmlns="http://www.w3.org/2000/svg" version="1.1" xmlns:xlink="http://www.w3.org/1999/xlink" xmlns:svgjs="http://svgjs.dev/svgjs" width="1000" height="229" viewBox="0 0 1000 229"><g transform="matrix(1,0,0,1,-0.6060592072079203,0.3342443105559738)"><svg viewBox="0 0 396 91" data-background-color="#ffffff" preserveAspectRatio="xMidYMid meet" height="229" width="1000" xmlns="http://www.w3.org/2000/svg" xmlns:xlink="http://www.w3.org/1999/xlink"><defs></defs><g id="tight-bounds" transform="matrix(1,0,0,1,0.23999944605432688,-0.13282197493708736)"><svg viewBox="0 0 395.5199999999999 91.2656439498742" height="91.2656439498742" width="395.5199999999999"><g><svg viewBox="0 0 563.9139660934252 130.1222978555926" height="91.2656439498742" width="395.5199999999999"><g transform="matrix(1,0,0,1,168.39396609342515,17.983617142126043)"><svg viewBox="0 0 395.52 94.1550635713405" height="94.1550635713405" width="395.52"><g><svg viewBox="0 0 395.52 94.1550635713405" height="94.1550635713405" width="395.52"><g><svg viewBox="0 0 395.52 56.591734963221676" height="56.591734963221676" width="395.52"><g transform="matrix(1,0,0,1,0,0)"><svg width="395.52" viewBox="3.95 -40 283.03476075776 40.5" height="56.591734963221676" data-palette-color="#c9c9c9"><g class="undefined-text-0" data-fill-palette-color="primary" id="text-0"><path d="M30.95-11.3L30.95-8Q30.95-3.95 28.25-1.95L28.25-1.95Q26.95-1 25.58-0.48 24.2 0.05 22.9 0.05L22.9 0.05 12 0.05Q10.7 0.05 9.33-0.48 7.95-1 6.65-1.95L6.65-1.95Q5.35-2.95 4.65-4.42 3.95-5.9 3.95-8L3.95-8 3.95-31.75Q3.95-33.75 4.65-35.27 5.35-36.8 6.65-37.75L6.65-37.75 6.6-37.75Q7.9-38.6 9.3-39.15 10.7-39.7 12-39.7L12-39.7 22.9-39.7Q24.2-39.7 25.6-39.15 27-38.6 28.3-37.75L28.3-37.75 28.25-37.75Q29.55-36.8 30.25-35.27 30.95-33.75 30.95-31.75L30.95-31.75 30.95-28.3Q30.95-25.9 27.95-25.9L27.95-25.9Q25-25.9 25-28.3L25-28.3 25-31.3Q25-32.55 24.25-33.6 23.5-34.65 21.65-34.65L21.65-34.65 13.25-34.65Q11.4-34.65 10.65-33.6 9.9-32.55 9.9-31.3L9.9-31.3 9.9-8.4Q9.9-7.1 10.65-6.05 11.4-5 13.25-5L13.25-5 21.65-5Q23.5-5 24.25-6.05 25-7.1 25-8.4L25-8.4 25-11.3Q25-13.65 27.95-13.65L27.95-13.65Q30.95-13.65 30.95-11.3L30.95-11.3ZM61.8-0.6L52.35-16.45 48.5-16.45Q47.65-16.45 47.17-17.13 46.7-17.8 46.7-18.95L46.7-18.95Q46.7-21.5 48.8-21.5L48.8-21.5 54.65-21.5Q56.5-21.5 57.25-22.55 58-23.6 58-24.85L58-24.85 58-31.3Q58-32.55 57.25-33.6 56.5-34.65 54.65-34.65L54.65-34.65 44.1-34.65 44.1-2.05Q44.1 0.35 41.15 0.35L41.15 0.35Q38.2 0.35 38.2-2.05L38.2-2.05 38.2-36.7Q38.2-38.5 39.12-39.1 40.05-39.7 41.35-39.7L41.35-39.7 55.9-39.7Q57.2-39.7 58.6-39.15 60-38.6 61.3-37.75L61.3-37.75 61.25-37.75Q62.55-36.8 63.25-35.27 63.95-33.75 63.95-31.75L63.95-31.75 63.95-24.45Q63.95-20.4 61.25-18.4L61.25-18.4Q60.7-18 60.07-17.65 59.45-17.3 58.8-16.95L58.8-16.95 66.8-3.75Q66.95-3.5 67.1-3.1 67.25-2.7 67.25-2.45L67.25-2.45Q67.25-1.25 65.55-0.15L65.55-0.15 65.55-0.2Q64.4 0.5 63.6 0.5L63.6 0.5Q62.45 0.5 61.75-0.65L61.75-0.65 61.8-0.6ZM93.4 0.05L75.1 0.05Q73.25 0.05 72.6-0.9 71.95-1.85 71.95-3L71.95-3 71.95-36.7Q71.95-37.85 72.6-38.78 73.25-39.7 75.1-39.7L75.1-39.7 92.5-39.7Q94.35-39.7 94.45-37.2L94.45-37.2Q94.55-34.65 92.5-34.65L92.5-34.65 77.85-34.65 77.85-5 93.4-5Q95.25-5 95.3-2.55L95.3-2.55Q95.4 0.05 93.4 0.05L93.4 0.05ZM90.65-20.65L90.65-20.65Q90.65-18.9 89.42-17.7 88.2-16.5 86.45-16.5L86.45-16.5Q84.75-16.5 83.55-17.7 82.35-18.9 82.35-20.65L82.35-20.65Q82.35-22.4 83.55-23.6 84.75-24.8 86.45-24.8L86.45-24.8Q88.2-24.8 89.42-23.6 90.65-22.4 90.65-20.65ZM108.69-39.7L119.59-39.7Q120.89-39.7 122.29-39.15 123.69-38.6 124.99-37.75L124.99-37.75 124.94-37.75Q126.24-36.8 126.94-35.27 127.64-33.75 127.64-31.75L127.64-31.75 127.64-8Q127.64-3.95 124.94-1.95L124.94-1.95Q123.64-1 122.27-0.48 120.89 0.05 119.59 0.05L119.59 0.05 108.69 0.05Q107.39 0.05 106.02-0.48 104.64-1 103.34-1.95L103.34-1.95Q102.04-2.95 101.34-4.42 100.64-5.9 100.64-8L100.64-8 100.64-31.75Q100.64-33.75 101.34-35.27 102.04-36.8 103.34-37.75L103.34-37.75 103.29-37.75Q104.59-38.6 105.99-39.15 107.39-39.7 108.69-39.7L108.69-39.7ZM109.94-5L118.34-5Q120.19-5 120.94-6.05 121.69-7.1 121.69-8.4L121.69-8.4 121.69-31.3Q121.69-32.55 120.94-33.6 120.19-34.65 118.34-34.65L118.34-34.65 109.94-34.65Q108.09-34.65 107.34-33.6 106.59-32.55 106.59-31.3L106.59-31.3 106.59-8.4Q106.59-7.1 107.34-6.05 108.09-5 109.94-5L109.94-5ZM146.94 0.25L146.94 0.25Q145.94 0.25 144.81-0.08 143.69-0.4 143.19-1.3L143.19-1.3Q142.04-5.2 140.79-9.3 139.54-13.4 138.29-17.35L138.29-17.35Q136.89-22 135.29-27.03 133.69-32.05 132.29-36.65L132.29-36.65Q131.99-37.75 132.64-38.58 133.29-39.4 134.49-39.8L134.49-39.8Q135.24-40 135.79-40L135.79-40Q137.49-40 137.99-38.3L137.99-38.3 141.69-26.45Q142.19-24.65 142.87-22.5 143.54-20.35 144.24-18.1 144.94-15.85 145.64-13.63 146.34-11.4 146.94-9.5L146.94-9.5Q147.89-12.65 149.01-16.32 150.14-20 151.31-23.8 152.49-27.6 153.64-31.33 154.79-35.05 155.79-38.3L155.79-38.3Q156.34-40 157.94-40L157.94-40Q158.54-40 159.34-39.8L159.34-39.8Q162.09-39.05 161.49-36.65L161.49-36.65Q158.79-27.9 156.04-19 153.29-10.1 150.59-1.3L150.59-1.3Q150.19-0.3 149.12-0.03 148.04 0.25 146.94 0.25ZM187.74 0.05L169.44 0.05Q167.59 0.05 166.94-0.9 166.29-1.85 166.29-3L166.29-3 166.29-36.7Q166.29-37.85 166.94-38.78 167.59-39.7 169.44-39.7L169.44-39.7 186.84-39.7Q188.69-39.7 188.79-37.2L188.79-37.2Q188.89-34.65 186.84-34.65L186.84-34.65 172.19-34.65 172.19-5 187.74-5Q189.59-5 189.64-2.55L189.64-2.55Q189.74 0.05 187.74 0.05L187.74 0.05ZM184.99-20.65L184.99-20.65Q184.99-18.9 183.76-17.7 182.54-16.5 180.79-16.5L180.79-16.5Q179.09-16.5 177.89-17.7 176.69-18.9 176.69-20.65L176.69-20.65Q176.69-22.4 177.89-23.6 179.09-24.8 180.79-24.8L180.79-24.8Q182.54-24.8 183.76-23.6 184.99-22.4 184.99-20.65ZM218.64-0.6L209.19-16.45 205.34-16.45Q204.49-16.45 204.01-17.13 203.54-17.8 203.54-18.95L203.54-18.95Q203.54-21.5 205.64-21.5L205.64-21.5 211.49-21.5Q213.34-21.5 214.09-22.55 214.84-23.6 214.84-24.85L214.84-24.85 214.84-31.3Q214.84-32.55 214.09-33.6 213.34-34.65 211.49-34.65L211.49-34.65 200.94-34.65 200.94-2.05Q200.94 0.35 197.99 0.35L197.99 0.35Q195.04 0.35 195.04-2.05L195.04-2.05 195.04-36.7Q195.04-38.5 195.96-39.1 196.89-39.7 198.19-39.7L198.19-39.7 212.74-39.7Q214.04-39.7 215.44-39.15 216.84-38.6 218.14-37.75L218.14-37.75 218.09-37.75Q219.39-36.8 220.09-35.27 220.79-33.75 220.79-31.75L220.79-31.75 220.79-24.45Q220.79-20.4 218.09-18.4L218.09-18.4Q217.54-18 216.91-17.65 216.29-17.3 215.64-16.95L215.64-16.95 223.64-3.75Q223.79-3.5 223.94-3.1 224.09-2.7 224.09-2.45L224.09-2.45Q224.09-1.25 222.39-0.15L222.39-0.15 222.39-0.2Q221.24 0.5 220.44 0.5L220.44 0.5Q219.29 0.5 218.59-0.65L218.59-0.65 218.64-0.6ZM238.03-22.85L247.68-22.85Q248.98-22.85 250.38-22.3 251.78-21.75 253.08-20.85L253.08-20.85 253.03-20.85Q254.33-19.95 255.03-18.4 255.73-16.85 255.73-14.85L255.73-14.85 255.73-8Q255.73-3.95 253.03-1.95L253.03-1.95Q251.73-1 250.36-0.48 248.98 0.05 247.68 0.05L247.68 0.05 236.78 0.05Q235.48 0.05 234.11-0.48 232.73-1 231.43-1.95L231.43-1.95Q228.73-3.95 228.73-8L228.73-8 228.73-11.3Q228.73-13.65 231.68-13.65L231.68-13.65Q234.68-13.65 234.68-11.3L234.68-11.3 234.68-8.4Q234.68-7.1 235.43-6.05 236.18-5 238.03-5L238.03-5 246.43-5Q248.28-5 249.03-6.05 249.78-7.1 249.78-8.4L249.78-8.4 249.78-14.45Q249.78-15.7 249.03-16.78 248.28-17.85 246.43-17.85L246.43-17.85 236.78-17.85Q234.18-17.85 231.43-19.75L231.43-19.75Q228.73-21.85 228.73-25.8L228.73-25.8 228.73-31.75Q228.73-33.75 229.43-35.27 230.13-36.8 231.43-37.75L231.43-37.75 231.38-37.75Q232.68-38.6 234.08-39.15 235.48-39.7 236.78-39.7L236.78-39.7 247.68-39.7Q248.98-39.7 250.38-39.15 251.78-38.6 253.08-37.75L253.08-37.75 253.03-37.75Q254.33-36.8 255.03-35.27 255.73-33.75 255.73-31.75L255.73-31.75 255.73-28.8Q255.73-26.45 252.73-26.45L252.73-26.45Q249.78-26.45 249.78-28.8L249.78-28.8 249.78-31.3Q249.78-32.55 249.03-33.6 248.28-34.65 246.43-34.65L246.43-34.65 238.03-34.65Q236.18-34.65 235.43-33.6 234.68-32.55 234.68-31.3L234.68-31.3 234.68-26.2Q234.68-24.9 235.43-23.88 236.18-22.85 238.03-22.85L238.03-22.85ZM285.08 0.05L266.78 0.05Q264.93 0.05 264.28-0.9 263.63-1.85 263.63-3L263.63-3 263.63-36.7Q263.63-37.85 264.28-38.78 264.93-39.7 266.78-39.7L266.78-39.7 284.18-39.7Q286.03-39.7 286.13-37.2L286.13-37.2Q286.23-34.65 284.18-34.65L284.18-34.65 269.53-34.65 269.53-5 285.08-5Q286.93-5 286.98-2.55L286.98-2.55Q287.08 0.05 285.08 0.05L285.08 0.05ZM282.33-20.65L282.33-20.65Q282.33-18.9 281.11-17.7 279.88-16.5 278.13-16.5L278.13-16.5Q276.43-16.5 275.23-17.7 274.03-18.9 274.03-20.65L274.03-20.65Q274.03-22.4 275.23-23.6 276.43-24.8 278.13-24.8L278.13-24.8Q279.88-24.8 281.11-23.6 282.33-22.4 282.33-20.65Z" fill="#c9c9c9" data-fill-palette-color="primary"></path></g></svg></g></svg></g><g transform="matrix(1,0,0,1,19.77600000000001,69.95168538639919)"><svg viewBox="0 0 375.74399999999997 24.20337818494131" height="24.20337818494131" width="375.74399999999997"><g transform="matrix(1,0,0,1,0,0)"><svg width="375.74399999999997" viewBox="1.2 -32.4 511.62000000000006 32.96" height="24.20337818494131" data-palette-color="#b6cee2"><path d="M21.56-31.86L21.56-27.29 6.25-27.29 6.25-18.51 18.19-18.51 18.19-13.94 6.25-13.94 6.25 0 1.2 0 1.2-31.86 21.56-31.86ZM51.39-22.29L49.48-17.36Q48.58-17.8 47.64-18.03 46.7-18.26 45.48-18.26L45.48-18.26Q43.8-18.26 42.32-17.76 40.84-17.26 39.77-16.26 38.69-15.26 38.1-13.76 37.5-12.26 37.5-10.21L37.5-10.21 37.5-4.54 42.6-4.54 42.6 0 27.29 0 27.29-4.54 32.44-4.54 32.44-18.19 27.29-18.19 27.29-22.75 37.5-22.75 37.5-17.04Q38.74-20.46 41.17-21.88 43.6-23.29 46.95-23.29L46.95-23.29Q48-23.29 49.14-23.07 50.29-22.85 51.39-22.29L51.39-22.29ZM78.29-9.45L59.22-9.45Q59.59-7.1 61.46-5.55 63.33-4 66.47-4L66.47-4Q68.94-4 70.76-4.77 72.58-5.54 73.9-6.81L73.9-6.81 76.48-3.25Q74.29-1.05 71.83-0.24 69.38 0.56 66.47 0.56L66.47 0.56Q63.84 0.56 61.57-0.32 59.3-1.2 57.64-2.77 55.98-4.35 55.04-6.52 54.1-8.69 54.1-11.35L54.1-11.35Q54.1-13.94 54.96-16.13 55.83-18.31 57.4-19.91 58.98-21.51 61.18-22.4 63.37-23.29 66.04-23.29L66.04-23.29Q68.79-23.29 71.04-22.35 73.29-21.41 74.89-19.63 76.48-17.85 77.39-15.27 78.29-12.7 78.29-9.45L78.29-9.45ZM59.44-13.89L72.58-13.89Q72.19-16.09 70.31-17.42 68.43-18.75 66.04-18.75L66.04-18.75Q63.64-18.75 61.74-17.42 59.83-16.09 59.44-13.89L59.44-13.89ZM105.58-9.45L86.52-9.45Q86.88-7.1 88.75-5.55 90.62-4 93.77-4L93.77-4Q96.23-4 98.05-4.77 99.87-5.54 101.19-6.81L101.19-6.81 103.78-3.25Q101.58-1.05 99.13-0.24 96.67 0.56 93.77 0.56L93.77 0.56Q91.13 0.56 88.86-0.32 86.59-1.2 84.93-2.77 83.27-4.35 82.33-6.52 81.39-8.69 81.39-11.35L81.39-11.35Q81.39-13.94 82.26-16.13 83.12-18.31 84.7-19.91 86.27-21.51 88.47-22.4 90.67-23.29 93.33-23.29L93.33-23.29Q96.09-23.29 98.33-22.35 100.58-21.41 102.18-19.63 103.78-17.85 104.68-15.27 105.58-12.7 105.58-9.45L105.58-9.45ZM86.74-13.89L99.87-13.89Q99.48-16.09 97.6-17.42 95.72-18.75 93.33-18.75L93.33-18.75Q90.93-18.75 89.03-17.42 87.13-16.09 86.74-13.89L86.74-13.89ZM130.73-31.86L130.73 0 125.67 0 125.67-2.1Q124.21-0.81 122.72-0.12 121.23 0.56 119.33 0.56L119.33 0.56Q117.13 0.56 115.25-0.32 113.37-1.2 112.01-2.77 110.66-4.35 109.89-6.54 109.12-8.74 109.12-11.35L109.12-11.35Q109.12-13.94 109.89-16.15 110.66-18.36 112.01-19.93 113.37-21.51 115.25-22.4 117.13-23.29 119.33-23.29L119.33-23.29Q121.23-23.29 122.72-22.64 124.21-22 125.67-20.7L125.67-20.7 125.67-27.29 121.28-27.29 121.28-31.86 130.73-31.86ZM125.67-6.05L125.67-16.7Q124.77-17.7 123.34-18.23 121.91-18.75 120.62-18.75L120.62-18.75Q117.76-18.75 115.97-16.7 114.17-14.65 114.17-11.35L114.17-11.35Q114.17-8.06 115.97-6.03 117.76-4 120.62-4L120.62-4Q121.91-4 123.34-4.53 124.77-5.05 125.67-6.05L125.67-6.05ZM159.8-11.35L159.8-11.35Q159.8-8.69 158.96-6.52 158.12-4.35 156.54-2.77 154.97-1.2 152.77-0.32 150.57 0.56 147.86 0.56L147.86 0.56Q145.2 0.56 143.01-0.32 140.81-1.2 139.23-2.77 137.66-4.35 136.82-6.52 135.97-8.69 135.97-11.35L135.97-11.35Q135.97-13.94 136.82-16.15 137.66-18.36 139.23-19.96 140.81-21.56 143.01-22.42 145.2-23.29 147.86-23.29L147.86-23.29Q150.57-23.29 152.77-22.42 154.97-21.56 156.54-19.96 158.12-18.36 158.96-16.15 159.8-13.94 159.8-11.35ZM154.77-11.35L154.77-11.35Q154.77-12.89 154.3-14.27 153.82-15.65 152.92-16.63 152.01-17.6 150.73-18.18 149.45-18.75 147.86-18.75L147.86-18.75Q146.25-18.75 144.98-18.18 143.71-17.6 142.83-16.63 141.96-15.65 141.48-14.27 141-12.89 141-11.35L141-11.35Q141-9.74 141.48-8.42 141.96-7.1 142.83-6.1 143.71-5.1 144.98-4.55 146.25-4 147.86-4L147.86-4Q149.45-4 150.73-4.55 152.01-5.1 152.92-6.1 153.82-7.1 154.3-8.42 154.77-9.74 154.77-11.35ZM186.51-16.36L186.51 0 181.45 0 181.45-15.6Q181.45-17.21 181.13-17.98 180.8-18.75 179.97-18.75L179.97-18.75Q178.45-18.75 178.05-17.05 177.65-15.36 177.65-12.11L177.65-12.11 177.65 0 172.59 0 172.59-15.6Q172.59-17.21 172.25-17.98 171.91-18.75 171.05-18.75L171.05-18.75Q169.57-18.75 169.19-17.05 168.81-15.36 168.81-12.11L168.81-12.11 168.81 0 163.75 0 163.75-22.75 168.86-22.75 168.86-19.46Q169.39-21.34 170.44-22.31 171.49-23.29 173.25-23.29L173.25-23.29Q174.72-23.29 175.71-22.4 176.69-21.51 177.06-19.95L177.06-19.95Q177.91-21.66 178.83-22.47 179.75-23.29 181.65-23.29L181.65-23.29Q183.99-23.29 185.25-21.57 186.51-19.85 186.51-16.36L186.51-16.36ZM241.68-11.35L241.68-11.35Q241.68-8.69 240.84-6.52 239.99-4.35 238.42-2.77 236.85-1.2 234.65-0.32 232.45 0.56 229.74 0.56L229.74 0.56Q227.08 0.56 224.88-0.32 222.69-1.2 221.11-2.77 219.54-4.35 218.69-6.52 217.85-8.69 217.85-11.35L217.85-11.35Q217.85-13.94 218.69-16.15 219.54-18.36 221.11-19.96 222.69-21.56 224.88-22.42 227.08-23.29 229.74-23.29L229.74-23.29Q232.45-23.29 234.65-22.42 236.85-21.56 238.42-19.96 239.99-18.36 240.84-16.15 241.68-13.94 241.68-11.35ZM236.65-11.35L236.65-11.35Q236.65-12.89 236.17-14.27 235.7-15.65 234.79-16.63 233.89-17.6 232.61-18.18 231.33-18.75 229.74-18.75L229.74-18.75Q228.13-18.75 226.86-18.18 225.59-17.6 224.71-16.63 223.83-15.65 223.36-14.27 222.88-12.89 222.88-11.35L222.88-11.35Q222.88-9.74 223.36-8.42 223.83-7.1 224.71-6.1 225.59-5.1 226.86-4.55 228.13-4 229.74-4L229.74-4Q231.33-4 232.61-4.55 233.89-5.1 234.79-6.1 235.7-7.1 236.17-8.42 236.65-9.74 236.65-11.35ZM268.39-22.75L268.39-18.19 259.52-18.19 259.52-4.54 264.72-4.54 264.72 0 249.44 0 249.44-4.54 254.47-4.54 254.47-18.19 249.44-18.19 249.44-22.75 254.47-22.75Q254.47-27.44 257.35-29.92 260.23-32.4 265.14-32.4L265.14-32.4Q265.87-32.4 266.7-32.32 267.53-32.25 268.39-32.15L268.39-32.15 268.39-27.71Q266.92-27.86 265.72-27.86L265.72-27.86Q263.77-27.86 262.58-27.58 261.38-27.29 260.71-26.67 260.04-26.05 259.78-25.07 259.52-24.1 259.52-22.75L259.52-22.75 268.39-22.75ZM319.41-11.3L323.46-9.74Q322.87-7.4 321.9-5.49 320.92-3.59 319.52-2.25 318.11-0.9 316.24-0.17 314.38 0.56 311.96 0.56L311.96 0.56Q308.62 0.56 306.3-0.82 303.98-2.2 302.5-4.5 301.02-6.81 300.38-9.78 299.73-12.74 299.73-15.94L299.73-15.94Q299.73-19.14 300.38-22.12 301.02-25.1 302.47-27.37 303.93-29.64 306.17-31.02 308.42-32.4 311.67-32.4L311.67-32.4Q312.72-32.4 313.79-32.13 314.87-31.86 315.79-31.31 316.72-30.76 317.42-29.96 318.11-29.15 318.41-28.1L318.41-28.1 318.41-31.86 322.97-31.86 322.97-19.8 318.41-19.8Q318.41-21.29 318.04-22.74 317.67-24.19 316.87-25.32 316.06-26.44 314.84-27.15 313.62-27.86 311.96-27.86L311.96-27.86Q309.81-27.86 308.44-26.81 307.08-25.76 306.25-24.05 305.42-22.34 305.09-20.21 304.76-18.09 304.76-15.94L304.76-15.94Q304.76-13.79 305.09-11.65 305.42-9.5 306.22-7.8 307.03-6.1 308.42-5.05 309.81-4 311.96-4L311.96-4Q315.06-4 316.73-5.98 318.41-7.96 319.41-11.3L319.41-11.3ZM351.61-22.29L349.7-17.36Q348.8-17.8 347.86-18.03 346.92-18.26 345.7-18.26L345.7-18.26Q344.01-18.26 342.54-17.76 341.06-17.26 339.98-16.26 338.91-15.26 338.31-13.76 337.71-12.26 337.71-10.21L337.71-10.21 337.71-4.54 342.82-4.54 342.82 0 327.51 0 327.51-4.54 332.66-4.54 332.66-18.19 327.51-18.19 327.51-22.75 337.71-22.75 337.71-17.04Q338.96-20.46 341.39-21.88 343.82-23.29 347.16-23.29L347.16-23.29Q348.21-23.29 349.36-23.07 350.51-22.85 351.61-22.29L351.61-22.29ZM378.51-9.45L359.44-9.45Q359.81-7.1 361.67-5.55 363.54-4 366.69-4L366.69-4Q369.16-4 370.98-4.77 372.79-5.54 374.11-6.81L374.11-6.81 376.7-3.25Q374.5-1.05 372.05-0.24 369.6 0.56 366.69 0.56L366.69 0.56Q364.05 0.56 361.78-0.32 359.51-1.2 357.85-2.77 356.19-4.35 355.25-6.52 354.31-8.69 354.31-11.35L354.31-11.35Q354.31-13.94 355.18-16.13 356.05-18.31 357.62-19.91 359.2-21.51 361.39-22.4 363.59-23.29 366.25-23.29L366.25-23.29Q369.01-23.29 371.26-22.35 373.5-21.41 375.1-19.63 376.7-17.85 377.6-15.27 378.51-12.7 378.51-9.45L378.51-9.45ZM359.66-13.89L372.79-13.89Q372.4-16.09 370.52-17.42 368.64-18.75 366.25-18.75L366.25-18.75Q363.86-18.75 361.95-17.42 360.05-16.09 359.66-13.89L359.66-13.89ZM382-6.54L382-6.54Q382-8.54 383.07-10.05 384.14-11.55 385.89-12.55 387.64-13.55 389.89-14.05 392.15-14.55 394.5-14.55L394.5-14.55Q395.79-14.55 396.72-14.5 397.65-14.45 398.6-14.36L398.6-14.36 398.6-15.26Q398.6-17.04 397.22-17.92 395.84-18.8 393.59-18.8L393.59-18.8Q391.54-18.8 389.42-18.23 387.29-17.65 385.39-16.55L385.39-16.55 383.34-20.51Q385.59-21.8 388.16-22.55 390.74-23.29 393.59-23.29L393.59-23.29Q395.45-23.29 397.24-22.88 399.04-22.46 400.47-21.51 401.89-20.56 402.75-19.03 403.6-17.5 403.6-15.26L403.6-15.26 403.6 0 398.6 0 398.6-3.34Q397.4-1.49 395.07-0.46 392.74 0.56 390.05 0.56L390.05 0.56Q388.39 0.56 386.92 0.11 385.44-0.34 384.36-1.25 383.29-2.15 382.64-3.48 382-4.81 382-6.54ZM391.35-3.96L391.35-3.96Q392.84-3.96 394.14-4.33 395.45-4.71 396.45-5.38 397.45-6.05 398.02-7.01 398.6-7.96 398.6-9.11L398.6-9.11 398.6-9.96Q397.4-10.16 396.35-10.18 395.3-10.21 394.5-10.21L394.5-10.21Q390.79-10.21 388.89-9.23 387-8.25 387-6.81L387-6.81Q387-3.96 391.35-3.96ZM427.94-8.25L432.38-7.25Q431.99-3.66 429.56-1.55 427.14 0.56 423.5 0.56L423.5 0.56Q421.5 0.56 419.84-0.1 418.18-0.76 417-1.93 415.83-3.1 415.18-4.75 414.54-6.4 414.54-8.35L414.54-8.35 414.54-18.19 409.39-18.19 409.39-22.75 414.54-22.75 414.54-31.86 419.59-31.86 419.59-22.75 429.14-22.75 429.14-18.19 419.59-18.19 419.59-8.35Q419.59-6.15 420.67-5.08 421.74-4 423.5-4L423.5-4Q425.65-4 426.7-5.25 427.75-6.49 427.94-8.25L427.94-8.25ZM451.13-31.86L451.13-25.71 444.98-25.71 444.98-31.86 451.13-31.86ZM455.77-4.54L455.77 0 440.49 0 440.49-4.54 445.52-4.54 445.52-18.19 440.49-18.19 440.49-22.75 450.57-22.75 450.57-4.54 455.77-4.54ZM487.31-11.35L487.31-11.35Q487.31-8.69 486.47-6.52 485.63-4.35 484.05-2.77 482.48-1.2 480.28-0.32 478.08 0.56 475.37 0.56L475.37 0.56Q472.71 0.56 470.51-0.32 468.32-1.2 466.74-2.77 465.17-4.35 464.33-6.52 463.48-8.69 463.48-11.35L463.48-11.35Q463.48-13.94 464.33-16.15 465.17-18.36 466.74-19.96 468.32-21.56 470.51-22.42 472.71-23.29 475.37-23.29L475.37-23.29Q478.08-23.29 480.28-22.42 482.48-21.56 484.05-19.96 485.63-18.36 486.47-16.15 487.31-13.94 487.31-11.35ZM482.28-11.35L482.28-11.35Q482.28-12.89 481.81-14.27 481.33-15.65 480.43-16.63 479.52-17.6 478.24-18.18 476.96-18.75 475.37-18.75L475.37-18.75Q473.76-18.75 472.49-18.18 471.22-17.6 470.34-16.63 469.46-15.65 468.99-14.27 468.51-12.89 468.51-11.35L468.51-11.35Q468.51-9.74 468.99-8.42 469.46-7.1 470.34-6.1 471.22-5.1 472.49-4.55 473.76-4 475.37-4L475.37-4Q476.96-4 478.24-4.55 479.52-5.1 480.43-6.1 481.33-7.1 481.81-8.42 482.28-9.74 482.28-11.35ZM512.82-14.04L512.82 0 507.77 0 507.77-14.04Q507.77-16.7 506.77-17.72 505.77-18.75 503.86-18.75L503.86-18.75Q501.05-18.75 499.28-16.48 497.51-14.21 497.51-10.21L497.51-10.21 497.51 0 492.46 0 492.46-22.75 497.51-22.75 497.51-17.04Q498.27-20 500.32-21.64 502.37-23.29 505.37-23.29L505.37-23.29Q508.87-23.29 510.84-21.02 512.82-18.75 512.82-14.04L512.82-14.04Z" opacity="1" transform="matrix(1,0,0,1,0,0)" fill="#b6cee2" class="undefined-text-1" data-fill-palette-color="secondary" id="text-1"></path></svg></g></svg></g></svg></g></svg></g><g><svg viewBox="0 0 155.03401567024764 130.1222978555926" height="130.1222978555926" width="155.03401567024764"><g><svg xmlns="http://www.w3.org/2000/svg" xmlns:xlink="http://www.w3.org/1999/xlink" version="1.1" x="0" y="0" viewBox="5.000161226461109 12.231470816490745 90.00026675013328 75.53852918350924" enable-background="new 0 0 100 100" xml:space="preserve" height="130.1222978555926" width="155.03401567024764" class="icon-icon-0" data-fill-palette-color="accent" id="icon-0"><path fill-rule="evenodd" clip-rule="evenodd" d="M37.854 26.105c4.419 0.427 9.428 0.088 13.873 1.506 9.941 3.172 12.788 12.875 6.951 21.616-5.842 8.748-19.074 12.679-28.707 8.529-5.733-2.47-8.564-7.035-8.386-13.493 0.031-1.115 0.004-2.23 0.004-3.859-1.384 1.08-2.314 2.11-3.474 2.62-1.036 0.456-2.631 0.83-3.42 0.339-0.834-0.521-1.51-2.167-1.378-3.21 0.498-3.95 2.573-7.114 5.903-9.304 2.276-1.498 4.431-0.314 4.684 2.432 0.073 0.803 0.011 1.618 0.011 2.586 3.181-2.606 6.212-5.089 9.882-8.096-1.812 0.348-2.923 0.822-3.96 0.692-1.139-0.141-2.447-0.605-3.204-1.391-0.354-0.366 0.118-2.113 0.728-2.727 3.469-3.495 7.695-5.516 12.689-5.434 2.33 0.038 3.104 1.875 1.559 3.693C40.347 24.094 38.744 25.293 37.854 26.105z" fill="#bababa" data-fill-palette-color="accent"></path><path fill-rule="evenodd" clip-rule="evenodd" d="M67.94 49.245c6.422 0.004 9.633 4.886 6.659 10.807-3.024 6.023-8.019 9.765-15.011 9.989-6.783 0.217-9.113-4.218-6.999-10.354C54.57 53.937 61.87 49.242 67.94 49.245z" fill="#bababa" data-fill-palette-color="accent"></path><path fill-rule="evenodd" clip-rule="evenodd" d="M74.326 45.595c-5.795-0.04-10.959-5.349-10.944-11.251 0.01-4.357 3.075-7.577 7.186-7.55 5.739 0.039 11.674 6.009 11.645 11.717C82.191 42.906 79.158 45.627 74.326 45.595z" fill="#bababa" data-fill-palette-color="accent"></path><path fill-rule="evenodd" clip-rule="evenodd" d="M36.197 75.248c-2.691-0.746-5.478-1.256-8.046-2.303-2.54-1.036-4.417-3.082-4.375-6.015 0.041-2.863 2.01-4.553 4.556-5.425 4.971-1.703 9.95-1.554 14.65 0.823 2.614 1.323 4.723 3.389 4.095 6.751-0.636 3.414-3.49 4.53-6.349 5.351-1.381 0.397-2.913 0.271-4.377 0.383C36.3 74.958 36.249 75.102 36.197 75.248z" fill="#bababa" data-fill-palette-color="accent"></path><path fill-rule="evenodd" clip-rule="evenodd" d="M88.205 52.5c5.772-0.035 8.319 4.093 5.863 8.747-2.173 4.12-7.616 6.623-11.453 5.267-3.709-1.311-5.093-4.566-3.344-8.096C81.184 54.559 84.474 52.786 88.205 52.5z" fill="#bababa" data-fill-palette-color="accent"></path><path fill-rule="evenodd" clip-rule="evenodd" d="M46.266 87.77c-2.305-0.647-4.112-0.884-5.658-1.646-3.387-1.671-3.609-5.446-0.465-7.569 3.783-2.554 7.987-2.739 12.106-1.13 3.565 1.392 4.038 5.329 0.839 7.496C51.013 86.325 48.388 86.917 46.266 87.77z" fill="#bababa" data-fill-palette-color="accent"></path><path fill-rule="evenodd" clip-rule="evenodd" d="M57.453 27.11c-2.69-0.852-5.713-1.424-8.362-2.749-2.986-1.494-2.787-4.063 0.091-5.745 3.72-2.173 12.656-1.704 16.048 0.843 2.476 1.857 2.406 4.397-0.435 5.661C62.648 26.075 60.217 26.391 57.453 27.11z" fill="#bababa" data-fill-palette-color="accent"></path><path fill-rule="evenodd" clip-rule="evenodd" d="M23.009 56.955c0.223 2.711-0.844 4.873-3.298 5.907-2.602 1.095-4.785-0.288-6.373-2.243-2.035-2.506-3.362-5.387-2.407-8.749 1.258-4.428 5.612-5.746 8.71-2.37 1.798 1.958 2.784 4.662 4.135 7.029C23.521 56.671 23.265 56.813 23.009 56.955z" fill="#bababa" data-fill-palette-color="accent"></path><path fill-rule="evenodd" clip-rule="evenodd" d="M75.446 15.578c2.298 1.132 4.353 1.767 5.882 3.037 0.915 0.759 1.645 2.734 1.288 3.751-0.365 1.041-2.194 2.245-3.323 2.188-1.999-0.1-4.194-0.742-5.84-1.851-1.147-0.772-2.348-2.96-2.011-4.048C71.828 17.411 73.889 16.688 75.446 15.578z" fill="#bababa" data-fill-palette-color="accent"></path><path fill-rule="evenodd" clip-rule="evenodd" d="M16.589 70.245c-0.965 1.368-1.612 3.255-2.71 3.568-1.08 0.307-3.025-0.646-3.847-1.653-1.048-1.285-1.825-3.18-1.823-4.81 0.002-1.304 1.066-3.109 2.191-3.732 0.768-0.426 2.856 0.455 3.629 1.366C15.165 66.325 15.651 68.213 16.589 70.245z" fill="#bababa" data-fill-palette-color="accent"></path><path fill-rule="evenodd" clip-rule="evenodd" d="M45.207 17.008c-1.104-0.705-2.2-1.406-3.298-2.105 1.098-0.819 2.091-2.043 3.317-2.354 1.657-0.42 3.54-0.396 5.239-0.088 1.749 0.317 2.037 1.67 0.427 2.551C49.295 15.886 47.424 16.257 45.207 17.008z" fill="#bababa" data-fill-palette-color="accent"></path><path fill-rule="evenodd" clip-rule="evenodd" d="M10.555 41.71c-0.106 3.194-2.276 6.416-3.938 6.2-0.639-0.083-1.572-1.251-1.612-1.966-0.132-2.368 2.467-5.919 4.086-5.665C9.78 40.388 10.317 41.462 10.555 41.71z" fill="#bababa" data-fill-palette-color="accent"></path><path fill-rule="evenodd" clip-rule="evenodd" d="M19.22 28.43c-0.552-1.517-1.03-2.235-0.991-2.923 0.028-0.5 0.647-1.162 1.165-1.403 1.829-0.85 3.725-1.549 5.596-2.307 0.114 0.565 0.515 1.45 0.297 1.645C23.54 25.011 21.674 26.448 19.22 28.43z" fill="#bababa" data-fill-palette-color="accent"></path></svg><g></g></g></svg></g></svg></g></svg><rect width="395.5199999999999" height="91.2656439498742" fill="none" stroke="none" visibility="hidden"></rect></g></svg></g></svg>